<svg width="42" height="28" viewBox="0 0 42 28" fill="none" xmlns="http://www.w3.org/2000/svg">
<rect x="0.5" y="0.5" width="41" height="27" rx="2.5" fill="white"/>
<rect x="0.5" y="0.5" width="41" height="27" rx="2.5" stroke="#CCCCCC"/>
<path fill-rule="evenodd" clip-rule="evenodd" d="M4.90002 17.121C4.92143 17.006 4.94103 16.8946 4.96025 16.7854C4.98995 16.6166 5.01873 16.4531 5.05181 16.2895C5.19192 15.5498 5.333 14.811 5.47409 14.0722C5.61517 13.3334 5.75625 12.5946 5.89636 11.8549C5.91582 11.7612 5.94307 11.6987 6.03647 11.6831C6.76427 11.5738 7.49596 11.4957 8.22375 11.6792C8.85814 11.8353 9.30182 12.2843 9.37577 12.8113C9.52755 13.8614 8.91652 14.7007 8.00969 15.0013C7.53098 15.1574 7.04449 15.1965 6.55021 15.1496C6.43345 15.1379 6.39843 15.1691 6.37897 15.2823C6.27388 15.8562 6.16491 16.4261 6.05204 16.9961C6.04426 17.0429 6.00145 17.1171 5.9742 17.1171C5.7097 17.1229 5.44954 17.1222 5.17913 17.1215H5.17841C5.08704 17.1213 4.99431 17.121 4.90002 17.121ZM6.79514 14.2245C6.94737 14.2286 7.09114 14.2325 7.2313 14.2166C7.63606 14.1737 7.9591 13.9902 8.14202 13.6037C8.34829 13.1665 8.2004 12.702 7.8112 12.5653C7.53487 12.4677 7.25076 12.4873 6.96665 12.5263C6.93162 12.5302 6.88492 12.5849 6.87713 12.62C6.8227 12.9061 6.76827 13.1934 6.71179 13.4915C6.66733 13.7262 6.62156 13.9678 6.57356 14.2205C6.64965 14.2205 6.72334 14.2225 6.79514 14.2245Z" fill="black"/>
<path fill-rule="evenodd" clip-rule="evenodd" d="M11.6248 16.5635C11.503 16.6999 11.3874 16.8296 11.2517 16.9336C10.843 17.2498 10.376 17.3201 9.90507 17.1015C9.43803 16.8868 9.24733 16.4691 9.22787 15.9772C9.18506 14.9427 9.54701 14.0878 10.4149 13.4944C10.9598 13.1197 11.5864 13.0064 12.2363 13.0416C12.4513 13.0543 12.6647 13.0917 12.8785 13.1292C12.9937 13.1494 13.1091 13.1696 13.2249 13.186C13.3572 13.2055 13.3767 13.2797 13.3533 13.3929C13.3221 13.5562 13.2905 13.7193 13.2589 13.8823C13.1411 14.4909 13.0235 15.0982 12.9252 15.7078C12.8689 16.0569 12.8464 16.4144 12.8242 16.7683C12.8203 16.8301 12.8164 16.8917 12.8124 16.9531C12.8046 17.0781 12.7734 17.1288 12.645 17.1249C12.4037 17.1171 12.1624 17.1171 11.9211 17.1249C11.7966 17.1288 11.7537 17.082 11.7654 16.9609C11.7765 16.8272 11.7837 16.6895 11.7911 16.5465C11.7941 16.4891 11.7971 16.4307 11.8004 16.3715C11.7389 16.4357 11.6812 16.5003 11.6248 16.5635ZM12.0729 13.959C11.6954 13.8536 11.3801 13.9277 11.1155 14.1502C10.6173 14.5718 10.3916 15.1184 10.4344 15.7703C10.4461 15.9694 10.5239 16.1607 10.7341 16.2466C10.9442 16.3324 11.1349 16.27 11.2984 16.1294C11.3957 16.0436 11.4891 15.946 11.5592 15.8367C11.8337 15.4164 11.9087 14.9423 11.9848 14.4608C12.0113 14.2938 12.0378 14.1258 12.0729 13.959Z" fill="black"/>
<path fill-rule="evenodd" clip-rule="evenodd" d="M17.5878 16.1451C17.8019 16.8321 18.3895 17.2147 19.4209 17.2147C20.1292 17.1952 20.8337 16.7931 21.2735 15.9655C21.507 15.5205 21.5926 15.0442 21.5615 14.5445C21.5342 14.0644 21.3435 13.6584 20.9543 13.3695C20.5457 13.065 20.0786 13.0025 19.5805 13.0572C17.9147 13.2446 17.2336 15.013 17.5878 16.1451ZM18.6962 15.5718C18.6966 15.5518 18.697 15.532 18.697 15.5127C18.7087 15.0637 18.8177 14.646 19.0862 14.2752C19.2069 14.1112 19.3586 13.9863 19.561 13.9394C19.9736 13.8458 20.3122 14.0839 20.3511 14.5328C20.3978 15.0832 20.2655 15.5907 19.9191 16.0319C19.7868 16.1958 19.6194 16.309 19.4054 16.3285C19.02 16.3637 18.7282 16.1021 18.697 15.6922C18.6944 15.6531 18.6953 15.6121 18.6962 15.5718Z" fill="black"/>
<path d="M22.4878 13.1392H23.4763C23.4608 13.35 23.4452 13.553 23.4257 13.7599C23.4618 13.7262 23.4966 13.693 23.5308 13.6603C23.6036 13.5908 23.6734 13.5243 23.7449 13.4632C24.1302 13.1275 24.57 12.9791 25.0798 13.0611C25.5001 13.1314 25.792 13.4398 25.8387 13.8731C25.8895 14.324 25.8052 14.7613 25.721 15.1977L25.7025 15.294C25.6684 15.4712 25.6347 15.6484 25.601 15.8255L25.6009 15.826L25.6007 15.8269C25.5268 16.215 25.453 16.6026 25.3756 16.9883C25.3639 17.039 25.3055 17.1132 25.2666 17.1171C24.9319 17.1249 24.5972 17.121 24.2625 17.1171C24.2513 17.1171 24.2401 17.111 24.223 17.1018C24.2164 17.0982 24.2089 17.0941 24.2002 17.0898C24.2625 16.7658 24.3248 16.4378 24.3832 16.1099C24.4727 15.6063 24.5583 15.1067 24.6361 14.6031C24.6517 14.5172 24.6439 14.4274 24.6322 14.3415C24.6011 14.0409 24.3793 13.9043 24.0913 13.9941C23.811 14.0839 23.6437 14.3025 23.5075 14.5445C23.3051 14.8998 23.235 15.294 23.165 15.6883C23.1483 15.7812 23.1318 15.8739 23.1153 15.9665L23.113 15.9796L23.1127 15.9809C23.0532 16.3154 22.9939 16.6488 22.9276 16.9844C22.9159 17.0351 22.8575 17.1132 22.8186 17.1171C22.5457 17.1264 22.2703 17.1258 21.9766 17.1252C21.9018 17.1251 21.8258 17.1249 21.7483 17.1249C22.0052 15.782 22.2465 14.4665 22.4878 13.1392Z" fill="black"/>
<path fill-rule="evenodd" clip-rule="evenodd" d="M28.0999 16.3051C27.6874 16.2544 27.4111 15.9655 27.4383 15.5595C27.5244 15.5595 27.61 15.5608 27.6952 15.5621C27.8643 15.5647 28.0316 15.5673 28.1972 15.5595C28.5981 15.5361 28.9912 15.4697 29.357 15.2862C29.8241 15.052 30.042 14.6656 30.007 14.162C29.972 13.6506 29.6956 13.2797 29.2014 13.1314C28.4619 12.9089 27.7808 13.065 27.2009 13.5608C26.4965 14.162 26.2318 14.9583 26.333 15.8679C26.403 16.512 26.7533 16.9727 27.3916 17.1366C28.0766 17.3123 28.7499 17.2186 29.3999 16.9531C29.4466 16.9336 29.501 16.8595 29.4971 16.8126C29.4878 16.6221 29.4685 16.4316 29.4492 16.2411C29.4444 16.1935 29.4395 16.1459 29.4349 16.0982C29.4221 16.0982 29.4126 16.0976 29.4053 16.0971C29.3948 16.0963 29.3889 16.0959 29.3843 16.0982C29.3415 16.1138 29.2987 16.1295 29.2597 16.1451C28.8861 16.2895 28.5008 16.352 28.0999 16.3051ZM28.7032 14.5758C28.4658 14.7007 27.8508 14.7749 27.5512 14.7124C27.6134 14.1932 28.1622 13.7872 28.6253 13.9004C28.781 13.9395 28.8939 14.0214 28.9211 14.1893C28.9484 14.3533 28.8666 14.4899 28.7032 14.5758Z" fill="black"/>
<path fill-rule="evenodd" clip-rule="evenodd" d="M31.3264 15.5751C31.2914 15.9577 31.5638 16.2505 31.9802 16.3051C32.3694 16.352 32.7431 16.2934 33.1089 16.1607C33.1426 16.148 33.1752 16.1353 33.211 16.1214C33.2412 16.1096 33.2738 16.0969 33.3113 16.0826C33.3189 16.1653 33.3273 16.2464 33.3357 16.3263C33.3529 16.4916 33.3696 16.6521 33.3774 16.8126C33.3813 16.8595 33.3268 16.9336 33.284 16.9531C32.6224 17.2264 31.9413 17.3201 31.2447 17.1288C30.6181 16.957 30.2911 16.5003 30.2133 15.8757C30.116 15.0754 30.3223 14.3532 30.8788 13.7599C31.4782 13.1236 32.2137 12.8971 33.0622 13.1314C33.5798 13.2758 33.8562 13.6506 33.8873 14.1776C33.9184 14.6929 33.6849 15.0793 33.1984 15.3058C32.708 15.5322 32.1865 15.5673 31.6572 15.579C31.5521 15.5751 31.4431 15.5751 31.3264 15.5751ZM31.6481 14.7322C31.8207 14.7236 31.9871 14.7152 32.1515 14.6929C32.3072 14.6733 32.4628 14.6265 32.603 14.5601C32.7547 14.4938 32.8287 14.3532 32.8053 14.1815C32.782 14.0175 32.673 13.9394 32.5212 13.9004C32.062 13.7755 31.4899 14.1971 31.4393 14.7436C31.51 14.7392 31.5796 14.7357 31.6481 14.7322Z" fill="black"/>
<path d="M34.1013 16.3051C34.0507 16.5706 34.004 16.8321 33.9534 17.121C34.0314 17.121 34.1082 17.1212 34.1841 17.1213C34.4836 17.1219 34.7692 17.1225 35.0548 17.1132C35.0821 17.1132 35.1249 17.039 35.1327 16.9922C35.1724 16.7972 35.2092 16.6013 35.246 16.4054C35.3138 16.0443 35.3816 15.6835 35.4674 15.3292C35.6581 14.5406 35.9811 14.2674 36.7478 14.1659C36.779 14.162 36.8296 14.1268 36.8373 14.0995C36.8862 13.8751 36.93 13.649 36.9754 13.4145C36.9987 13.294 37.0224 13.1713 37.0475 13.0455C36.308 12.9674 35.8955 13.3968 35.5374 13.9238L35.5432 13.8475C35.5608 13.6144 35.5787 13.3773 35.5997 13.1275C35.5188 13.1275 35.4394 13.1272 35.3611 13.127C35.1306 13.1262 34.9098 13.1255 34.689 13.1314C34.6579 13.1353 34.5995 13.2055 34.5956 13.2485C34.5125 14.2518 34.316 15.2331 34.1196 16.2137L34.1013 16.3051Z" fill="black"/>
<path d="M23.7969 8.42967C23.7575 8.41924 23.7181 8.40881 23.6787 8.40002C23.558 8.40002 23.4374 8.40002 23.309 8.40393C23.2651 8.41273 23.2212 8.42232 23.177 8.43199C23.1231 8.44377 23.0687 8.45567 23.0132 8.46639C22.4177 8.5796 21.8573 8.7865 21.3163 9.05976C20.1448 9.65313 19.094 10.4222 18.1521 11.3317C17.5255 11.9329 16.9184 12.5614 16.3307 13.2055C15.2993 14.3376 14.4158 15.5829 13.7114 16.9492C13.3494 17.6558 13.0225 18.378 12.8746 19.1627C12.8474 19.3071 12.8941 19.475 12.9408 19.6194C12.9603 19.678 13.0692 19.7209 13.1432 19.7443C13.1626 19.7521 13.221 19.6545 13.2483 19.5999C13.2579 19.5787 13.2678 19.557 13.278 19.5349C13.447 19.1646 13.6755 18.6639 13.8738 18.3324C14.2942 17.6297 14.626 17.0859 15.0969 16.4183C15.852 15.3448 16.7342 14.2915 17.6605 13.3624C18.5362 12.4841 19.4131 11.6987 20.5145 11.1053C21.0205 10.836 21.5381 10.5705 22.0674 10.3519C22.982 9.97324 23.9356 9.71559 24.9163 9.57115C25.0214 9.55553 25.1615 9.47356 25.1965 9.38767C25.2277 9.3096 25.1537 9.16126 25.0798 9.08708C24.7801 8.77869 24.4298 8.54446 23.9939 8.4742C23.9283 8.46444 23.8626 8.44705 23.7969 8.42967Z" fill="#FC461E"/>
<path d="M14.8868 13.756C15.0736 13.2485 15.167 12.7215 15.1787 12.175C15.1735 12.1164 15.1692 12.0578 15.1648 11.9993C15.1562 11.8822 15.1475 11.7651 15.132 11.648C15.0269 10.7423 14.6377 9.97325 14.0189 9.31351C13.9449 9.23934 13.8437 9.18078 13.7425 9.14565C13.6414 9.10661 13.5752 9.16517 13.583 9.28228C13.5832 9.28475 13.5834 9.28723 13.5835 9.28971C13.5911 9.38891 13.599 9.49165 13.618 9.59068C13.6453 9.74668 13.6725 9.90286 13.6997 10.0592C13.7963 10.6147 13.8931 11.1715 13.9994 11.726C14.1045 12.2843 14.2213 12.8386 14.3458 13.389C14.3886 13.5647 14.4587 13.7404 14.5443 13.9043C14.6104 14.0292 14.7039 14.0175 14.7895 13.9043C14.8284 13.8575 14.8673 13.8106 14.8868 13.756Z" fill="#FC461E"/>
</svg>
