<?xml version="1.0" encoding="UTF-8"?>
<svg id="Layer_2" data-name="Layer 2" xmlns="http://www.w3.org/2000/svg" viewBox="0 0 1084.97 280.28">
  <defs>
    <style>
      .cls-1 {
        letter-spacing: .18em;
      }

      .cls-2 {
        letter-spacing: .18em;
      }

      .cls-3 {
        letter-spacing: .18em;
      }

      .cls-4 {
        letter-spacing: .13em;
      }

      .cls-5 {
        font-family: JennaSue, 'Jenna Sue';
        font-size: 64.13px;
      }

      .cls-5, .cls-6 {
        fill: #3771f5;
      }

      .cls-7 {
        letter-spacing: .2em;
      }

      .cls-8 {
        letter-spacing: .21em;
      }

      .cls-9 {
        letter-spacing: .21em;
      }

      .cls-10 {
        letter-spacing: .16em;
      }

      .cls-11 {
        letter-spacing: .23em;
      }

      .cls-12 {
        letter-spacing: .16em;
      }

      .cls-6 {
        font-family: Poppins-ExtraBold, 'Poppins ExtraBold';
        font-size: 83.01px;
        font-weight: 700;
      }

      .cls-13 {
        fill: #83d6fa;
        stroke-width: 0px;
      }

      .cls-14 {
        letter-spacing: .14em;
      }

      .cls-15 {
        letter-spacing: .15em;
      }
    </style>
  </defs>
  <g id="Layer_1-2" data-name="Layer 1">
    <g>
      <path class="cls-13" d="m269.99,192.92c6.63-16.29,10.28-34.12,10.28-52.79,0-56.29-33.2-104.83-81.08-127.12C181.24,4.66,161.23,0,140.13,0,85.18,0,37.63,31.62,14.66,77.66,5.28,96.47,0,117.68,0,140.13c0,72.13,54.48,131.53,124.54,139.28,1.22.14,2.46.25,3.7.36,3.92.33,7.89.5,11.89.5,1.53,0,3.04-.02,4.56-.07,48.78-1.56,91.28-28.06,115.15-67.16,1.04-1.72,2.06-3.46,3.04-5.23-3.29-7.71-7.82-14.76-13.32-20.92-4.97-5.57-10.75-10.4-17.15-14.32-6-3.69-12.55-6.56-19.49-8.48-6.52-1.81-13.4-2.78-20.5-2.78-.35,0-.69,0-1.04.02-.68,0-1.36.02-2.03.06-.1,0-.21,0-.33,0-.64.03-1.29.06-1.92.11-.62.04-1.22.09-1.84.14-.19.02-.38.04-.57.06-.61.06-1.22.13-1.82.21-.64.08-1.3.17-1.94.26-.05,0-.1.02-.14.02-.69.1-1.38.21-2.07.34-.02,0-.04,0-.06,0-.56.1-1.1.21-1.65.33-.21.04-.44.08-.65.14-.57.12-1.14.25-1.72.38-.64.15-1.26.31-1.89.48-.91.24-1.8.49-2.7.78-.45.13-.91.27-1.36.42-.65.21-1.3.44-1.95.66-.64.23-1.28.47-1.91.72-.64.25-1.26.5-1.89.76-.63.26-1.25.53-1.87.81-.61.28-1.22.56-1.82.84,0,0-.02,0-.02.02-.41.19-.81.39-1.21.59-.52.26-1.04.52-1.56.8-.25.13-.49.25-.74.39-4.68,2.4-9.98,3.75-15.6,3.75-18.62,0-33.76-14.86-34.24-33.37,3.74.04,7.48-.13,11.2-.52l23.03-.3-5.99-.08h5.52l.47.08-.41-.08h.19l.22.08-.2-.08h.07l.14.08-.13-.08h.04l.09.08-.09-.08h.02l.07.08-.06-.08h.02l.05.08-.04-.08h.01l.03.08-.03-.08h.01v.08s0-.08,0-.08h.01v.08s0-.08,0-.08h.01v.08s0-.08,0-.08h.01l-.03.08.03-.08h.01l-.04.08.05-.08h.02l-.06.08.07-.08h.02l-.09.08.09-.08h.04l-.13.08.14-.08h.07l-.2.08.22-.08h.19l-.41.08.47-.08h5.52l-5.99.08,118.95,1.53c-.15,11.11-1.81,21.86-4.82,32.03,6.22,5.47,11.54,11.93,15.72,19.15ZM138.6,21.19l.82,63.52c-2.79.04-5.54.28-8.22.71l-10.23-62.71c5.75-.93,11.64-1.44,17.63-1.52Zm-20.65,2.05l11.84,62.42c-2.73.52-5.4,1.23-7.97,2.13l-20.96-59.99c5.52-1.93,11.23-3.46,17.1-4.57Zm-19.98,5.62l22.5,59.42c-2.59.98-5.09,2.15-7.47,3.5l-31.06-55.43c5.12-2.88,10.48-5.38,16.03-7.49Zm-35.51,21.17l41.46,48.13c-2.08,1.8-4.03,3.75-5.83,5.84l-48.13-41.46c3.85-4.47,8.03-8.66,12.5-12.51Zm-14.47,14.86l49.19,40.2c-1.74,2.13-3.32,4.39-4.73,6.76l-54.61-32.47c3.03-5.09,6.42-9.93,10.15-14.49Zm-11.68,17.14l55.43,31.06c-1.34,2.39-2.5,4.88-3.48,7.47l-59.42-22.5c2.1-5.55,4.6-10.91,7.47-16.03Zm-8.58,19.09c.02-.06.04-.12.06-.18l59.98,20.96c-.9,2.57-1.61,5.24-2.12,7.97l-62.42-11.84c1.09-5.8,2.6-11.44,4.49-16.91Zm-5.02,19.93l62.7,10.23c-.34,2.15-.57,4.34-.66,6.56-.02.54-.03,1.1-.03,1.65l-63.52-.82c.07-5.99.59-11.87,1.51-17.62Zm-1.51,20.68l63.52-.82c.06,4.59.68,9.04,1.8,13.3-5.59-.47-11.27-.11-16.8.76-3.96.69-7.68,2.17-11.62,2.77-5.82,1.01-11.86.33-17.61-.56-6.05-.96-12.22-2.29-18.37-2.17-.54-4.36-.85-8.79-.91-13.28Zm1.12,14.92c2.06.31,4.1.65,6.11,1.09,3.85.82,7.8,1.95,11.8,2.08,4.06.18,8.06-.31,12.03-.54,3.98-.23,7.98-.62,11.94-1.16,3.94-.53,7.77-.81,11.68-.86,3.95-.08,7.83.13,11.7.49,1.86,5.55,4.57,10.71,7.99,15.33-6.11-.7-12.35-.35-18.4.6-3.96.69-7.68,2.17-11.62,2.77-5.82,1.01-11.86.33-17.61-.56-7.19-1.14-14.56-2.8-21.87-1.94-1.66-5.6-2.91-11.38-3.73-17.29Zm117.82,102.44c-2.68,0-5.34-.09-7.98-.27-3.53-.23-7.01-.62-10.44-1.15-1.18-.17-2.34-.37-3.5-.6-6.75-1.26-13.3-3.09-19.6-5.43,2.81-.81,5.52-2.06,8.15-3.2,2.77-1.22,5.7-2.02,8.69-2.44,7.34-.9,14.86-.06,21.56,3.17,6.51,3.15,13.88,4.19,21.06,3.68,5.44-.19,10.63-2.09,15.61-3.99,4.82-1.68,9.82-2.17,14.95-2.09,1.29.02,2.57.08,3.85.2-15.8,7.75-33.56,12.11-52.35,12.11Zm56.45-14.22c-7.84-1.85-16.32-1.85-24.01.79-4.49,1.66-8.71,3.59-13.47,4.09-5.48.56-11.12.57-16.51-.69-4.65-1.19-9.16-3.27-13.99-3.86-7.49-.87-15.22-.75-22.45,1.6-3.32,1.07-6.53,2.24-9.96,2.73-.74.1-1.49.19-2.24.27-11.71-4.94-22.47-11.7-31.92-19.92,1.27.25,2.53.55,3.76.92,3.49.99,6.66,2.66,10.15,3.79,7.11,2.3,14.78,2.54,22.13,1.15,3.61-.71,7.08-2.28,10.42-3.68,2.88-1.22,5.91-2.02,9.01-2.44,7.59-.89,15.35-.07,22.32,3.18,6.76,3.16,14.34,4.18,21.74,3.68,5.61-.19,10.96-2.08,16.13-3.99,5-1.68,10.19-2.17,15.49-2.09,3.53.05,7.01.41,10.39,1.35,2.93.78,5.9,1.98,9.03,2.72-5.04,3.88-10.4,7.36-16.03,10.4Zm17.71-11.72c-4.29-1.29-8.27-3.51-12.67-4.61-8.17-1.9-16.97-1.93-25,.73-4.66,1.67-9.05,3.6-13.97,4.1-5.67.56-11.5.57-17.08-.69-4.81-1.19-9.49-3.27-14.47-3.87-7.73-.86-15.69-.75-23.17,1.59-3.44,1.07-6.77,2.25-10.31,2.73-6.87.92-14.2.94-20.93-.91-3.37-.92-6.79-2.41-10.47-3.08-1.89-.39-3.8-.59-5.71-.65-5.47-4.93-10.48-10.36-14.96-16.23,2.5.3,4.97.71,7.39,1.34,4.11.99,7.94,2.68,12.05,3.82,8.34,2.28,17.15,2.51,25.68,1.14,7.35-1.24,13.97-5.07,21.39-5.93.76-.12,2.36-.3,3.12-.34,8.38-.66,16.84.24,24.69,3.32,8.03,3.17,16.77,4.16,25.35,3.67,6.48-.17,12.77-2.06,18.86-3.98,5.97-1.7,12.09-2.18,18.31-2.1,4.14.05,8.25.4,12.26,1.36,4.01.91,8.08,2.35,12.34,3.04,1.01.18,2.03.31,3.05.41-4.78,5.51-10.05,10.58-15.75,15.13Zm16.78-16.32c-1.27-.22-2.52-.48-3.75-.79-4.12-.96-7.93-2.72-12.04-3.88-4.15-1.25-8.51-1.81-12.8-2.01-6.43-.32-13.1.08-19.33,1.92-6.02,1.88-11.8,3.95-18.13,4.26-6.18.42-12.46.37-18.56-.82-6.17-1.33-12.24-3.63-18.61-4.03-8.49-.63-17.13-.49-25.41,1.73-4.06,1.1-8.02,2.3-12.19,2.76-6.1.74-12.44.8-18.58.15-6.34-.57-12.03-3.09-18.4-4.16-2.81-.49-5.64-.67-8.47-.65-3.84-5.14-7.28-10.6-10.27-16.33,2.77.3,5.52.71,8.21,1.33,4.6.98,8.94,2.7,13.54,3.84,9.3,2.27,19.03,2.49,28.51,1.14,8.19-1.24,15.72-5.1,23.98-5.94.85-.12,2.63-.3,3.48-.34,9.34-.66,18.76.23,27.62,3.33,9.02,3.18,18.69,4.14,28.22,3.66,2.33-.09,4.88-.33,7.17-.68,4.21-.55,9.69-2.21,13.85-3.3,6.72-1.71,13.58-2.19,20.53-2.11,4.63.05,9.23.39,13.74,1.36,4.5.92,9.07,2.36,13.8,3.04,1.73.27,3.49.44,5.25.54-3.36,5.64-7.17,10.99-11.38,15.98Zm-96.74-21.56c.37.04.73.08,1.1.1.17.02.35.03.52.05h.04c.46.03.91.06,1.37.08.38.02.75.04,1.14.05.12,0,.24,0,.37,0,.42,0,.84.02,1.26.02,8.33,0,16.22-1.84,23.3-5.12.38-.19.76-.39,1.15-.57.32-.16.64-.31.95-.46,0,0,.02-.02.02-.02,9.93-4.7,21.03-7.33,32.74-7.33,1.95,0,3.89.07,5.81.21,7.62.57,14.92,2.26,21.75,4.9,6.67,2.57,12.9,6.05,18.52,10.29-.42.76-.84,1.5-1.28,2.25-1.89-.26-3.77-.58-5.61-1-4.61-.96-8.93-2.74-13.53-3.9-9.34-2.37-19.01-2.56-28.57-1.49-4.72.59-9.41,2-13.92,3.31-4.44,1.3-8.93,2.05-13.55,2.36-6.91.41-13.92.37-20.75-.82-4.3-.83-8.56-2.04-12.87-2.93,0,0,.01,0,.02,0Zm-5.79-.93c-.72-.08-1.44-.14-2.16-.18-9.44-.62-19.01-.5-28.27,1.72-4.56,1.11-9.02,2.31-13.67,2.78-6.84.74-13.9.8-20.77.15-7.06-.56-13.52-3.11-20.61-4.17-3-.47-6.02-.65-9.02-.65-3.1-6.1-5.69-12.5-7.72-19.15,3.23.47,6.42.91,9.54,1.6,3.85.82,7.8,1.95,11.8,2.08,4.06.18,8.06-.31,12.03-.54,3.98-.23,7.98-.62,11.94-1.16,3.94-.53,7.77-.81,11.68-.86,5.17-.1,10.23.28,15.29.88,7.72,8.72,18.13,14.99,29.95,17.51Zm-23.53-97.1l-40.21-49.19c4.56-3.73,9.4-7.13,14.48-10.16l32.47,54.61c-2.37,1.41-4.62,3-6.75,4.74Zm1.76,41.98c.02-1.48.14-2.95.36-4.39l16.18,2.64c-5.44,1.05-10.99,1.64-16.54,1.75Zm17.69-1.98l-17.19-3.26c.29-1.64.71-3.25,1.24-4.82l20.26,7.08c-1.43.36-2.87.7-4.32.99Zm4.84-1.13l-20.5-7.76c.58-1.56,1.27-3.08,2.07-4.53l20.79,11.65c-.78.23-1.57.44-2.36.64Zm2.69-.74l-20.7-12.31c.84-1.44,1.78-2.82,2.81-4.12l19.5,15.94c-.54.17-1.08.33-1.62.49Zm1.86-.56l-19.2-16.54c1.07-1.28,2.24-2.48,3.49-3.59l16.98,19.72c-.42.14-.84.28-1.27.41Zm1.47-.48l-16.53-20.22c1.27-1.08,2.63-2.07,4.06-2.95l13.56,22.8c-.36.13-.73.25-1.09.37Zm1.27-.43l-12.99-23.18c1.44-.84,2.95-1.57,4.53-2.19l9.47,25.01c-.34.12-.67.24-1.01.36Zm1.21-.42s-.01,0-.02,0l-8.83-25.26c.41-.15.82-.29,1.24-.42,1.2-.38,2.4-.69,3.62-.93l4.98,26.24c-.33.12-.65.25-.98.37Zm1.16-.44l-4.29-26.32c1.67-.29,3.35-.45,5.02-.49l.34,26.4c-.36.14-.71.27-1.07.41Zm40.45-105.23l-20.96,59.99c-2.58-.9-5.24-1.62-7.97-2.13l11.84-62.42c5.86,1.11,11.57,2.64,17.1,4.57Zm-37.74-6.62c5.99.08,11.88.59,17.63,1.52l-10.23,62.71c-2.68-.43-5.43-.67-8.22-.71l.82-63.52Zm-1.43,111.37l.34-26.33c1.69,0,3.38.14,5.04.39l-4.15,25.44c-.41.17-.82.34-1.23.5Zm1.47-.6l4.78-25.2c1.66.3,3.3.72,4.91,1.26l-8.14,23.3c-.51.22-1.03.43-1.54.64Zm4.06-1.78c-.73.34-1.46.68-2.2,1l8.66-22.88c1.59.58,3.13,1.28,4.62,2.1l-11.08,19.78Zm.47-.22l11.38-19.13c1.46.85,2.86,1.81,4.2,2.87l-11.68,14.28c-1.29.68-2.58,1.35-3.9,1.98Zm18.95-11.32c-.45.19-.89.39-1.25.57-.8.44-3.71,2.62-4.5,3.17-2.69,1.83-5.46,3.52-8.31,5.08l11.36-13.19c1.29,1.09,2.5,2.28,3.63,3.58l-.93.8Zm-5.39-30.35l22.5-59.43c5.55,2.11,10.91,4.61,16.03,7.49l-31.06,55.43c-2.39-1.34-4.88-2.51-7.47-3.49Zm8.71,4.21l32.47-54.61c.89.53,1.77,1.07,2.65,1.62,4.12,2.61,8.08,5.46,11.84,8.54l-40.21,49.19c-2.12-1.74-4.38-3.33-6.75-4.74Zm13.47,11.27c-1.74-2-3.62-3.87-5.63-5.6l41.46-48.14c4.47,3.86,8.65,8.04,12.5,12.51l-48.14,41.46c-.07-.08-.13-.16-.2-.24Zm1.11,1.33l49.2-40.21c3.73,4.56,7.12,9.4,10.15,14.49l-54.61,32.47c-1.41-2.37-3-4.62-4.74-6.75Zm5.45,7.99l55.44-31.06c2.87,5.12,5.38,10.48,7.48,16.03l-59.42,22.5c-.98-2.59-2.15-5.08-3.49-7.47Zm3.97,8.82l59.99-20.96c1.93,5.52,3.46,11.23,4.56,17.09l-62.42,11.84c-.51-2.73-1.23-5.39-2.13-7.97Zm3.06,17.59c-.03-2.79-.27-5.53-.7-8.21l62.72-10.23c.93,5.75,1.44,11.63,1.51,17.62l-63.53.82Z"/>
      <g>
        <text class="cls-6" transform="translate(341.77 141.1)"><tspan x="0" y="0">CEYLON ODYSSEY</tspan></text>
        <text class="cls-6" transform="translate(341.77 141.1)"><tspan x="0" y="0">CEYLON ODYSSEY</tspan></text>
      </g>
      <text class="cls-5" transform="translate(353.23 199.26)"><tspan class="cls-3" x="0" y="0">P</tspan><tspan class="cls-10" x="33.67" y="0">e</tspan><tspan class="cls-11" x="59.71" y="0">r</tspan><tspan class="cls-2" x="88.12" y="0">fect </tspan><tspan class="cls-14" x="219.46" y="0">D</tspan><tspan class="cls-1" x="267.69" y="0">e</tspan><tspan class="cls-15" x="295.27" y="0">s</tspan><tspan class="cls-9" x="321.88" y="0">t</tspan><tspan class="cls-7" x="353.37" y="0">i</tspan><tspan class="cls-3" x="374.28" y="0">n</tspan><tspan class="cls-4" x="402.75" y="0">a</tspan><tspan class="cls-8" x="429.94" y="0">t</tspan><tspan class="cls-3" x="461.43" y="0">ion Aw</tspan><tspan class="cls-12" x="626.32" y="0">a</tspan><tspan class="cls-10" x="655.18" y="0">i</tspan><tspan class="cls-3" x="673.2" y="0">ts</tspan></text>
    </g>
  </g>
</svg>