<svg width="190" height="51" viewBox="0 0 190 51" fill="none" xmlns="http://www.w3.org/2000/svg">
<rect width="190" height="51" fill="white"/>
<rect width="189.119" height="50.9134" fill="white"/>
<path d="M49.0459 35.0455C50.2503 32.0863 50.9134 28.8473 50.9134 25.4558C50.9134 15.2302 44.8823 6.41254 36.1845 2.36338C32.9237 0.846529 29.2888 0 25.4558 0C15.4736 0 6.8358 5.74403 2.66311 14.1076C0.959155 17.5246 0 21.3775 0 25.4558C0 38.5588 9.89674 49.3493 22.6237 50.7571C22.8453 50.7826 23.0706 50.8025 23.2958 50.8225C24.0079 50.8825 24.7291 50.9134 25.4558 50.9134C25.7337 50.9134 26.008 50.9097 26.2841 50.9006C35.1454 50.6172 42.8659 45.8033 47.2021 38.7005C47.391 38.388 47.5763 38.0719 47.7543 37.7504C47.1567 36.3498 46.3337 35.0691 45.3346 33.9501C44.4318 32.9383 43.3818 32.0609 42.2192 31.3488C41.1292 30.6784 39.9394 30.1571 38.6787 29.8083C37.4943 29.4795 36.2445 29.3033 34.9547 29.3033C34.8911 29.3033 34.8293 29.3033 34.7658 29.3069C34.6422 29.3087 34.5187 29.3106 34.397 29.3178C34.3788 29.3178 34.3588 29.3196 34.337 29.3196C34.2208 29.3251 34.1027 29.3305 33.9883 29.3396C33.8756 29.3469 33.7666 29.356 33.654 29.3651C33.6195 29.3687 33.585 29.3723 33.5505 29.376C33.4396 29.3869 33.3288 29.3996 33.2198 29.4141C33.1036 29.4286 32.9837 29.445 32.8674 29.4613C32.8583 29.4631 32.8493 29.465 32.842 29.465C32.7166 29.4831 32.5913 29.5031 32.466 29.5267C32.4623 29.5267 32.4587 29.5285 32.4551 29.5285C32.3533 29.5467 32.2552 29.5667 32.1553 29.5885C32.1172 29.5958 32.0754 29.603 32.0372 29.6139C31.9337 29.6357 31.8302 29.6593 31.7248 29.683C31.6085 29.7102 31.4959 29.7393 31.3815 29.7702C31.2161 29.8137 31.0545 29.8592 30.891 29.9118C30.8092 29.9355 30.7257 29.9609 30.6439 29.9881C30.5258 30.0263 30.4078 30.0681 30.2897 30.108C30.1734 30.1498 30.0572 30.1934 29.9427 30.2388C29.8265 30.2842 29.7138 30.3297 29.5994 30.3769C29.4849 30.4241 29.3723 30.4732 29.2597 30.524C29.1489 30.5749 29.0381 30.6258 28.9291 30.6766C28.9273 30.6784 28.9254 30.6784 28.9254 30.6803C28.851 30.7148 28.7783 30.7511 28.7056 30.7874C28.6112 30.8347 28.5167 30.8819 28.4222 30.9328C28.3768 30.9564 28.3332 30.9782 28.2878 31.0036C27.4377 31.4396 26.4749 31.6848 25.4539 31.6848C22.0715 31.6848 19.3212 28.9854 19.234 25.6229C19.9134 25.6302 20.5928 25.5993 21.2685 25.5284L25.4521 25.4739L24.364 25.4594H25.3668L25.4521 25.4739L25.3777 25.4594H25.4122L25.4521 25.4739L25.4158 25.4594H25.4285L25.4539 25.4739L25.4303 25.4594H25.4376H25.4412L25.4539 25.4739L25.4431 25.4594H25.4467L25.4558 25.4739L25.4485 25.4594H25.4503H25.4521H25.4539H25.4558H25.4576H25.4594L25.4521 25.4739L25.4612 25.4594H25.4648L25.4539 25.4739L25.4667 25.4594H25.4703H25.4776L25.4539 25.4739L25.4794 25.4594H25.4921L25.4558 25.4739L25.4957 25.4594H25.5302L25.4558 25.4739L25.5411 25.4594H26.5439L25.4558 25.4739L47.064 25.7519C47.0368 27.7701 46.7352 29.7229 46.1884 31.5704C47.3183 32.5604 48.2866 33.7339 49.0459 35.0455ZM25.176 3.84752L25.325 15.3865C24.8181 15.3937 24.3186 15.4373 23.8317 15.5154L21.9734 4.12364C23.0179 3.9547 24.0879 3.86205 25.176 3.84752ZM21.4248 4.22174L23.5756 15.5608C23.0797 15.6553 22.5947 15.7843 22.1278 15.9478L18.3202 5.0501C19.323 4.70131 20.3603 4.42156 21.4248 4.22174ZM17.7971 5.24265L21.8844 16.0368C21.4139 16.2148 20.9597 16.4273 20.5274 16.6726L14.8851 6.60328C15.8152 6.0801 16.787 5.62414 17.7971 5.24265ZM11.3464 9.08836L18.8779 17.8316C18.5001 18.1586 18.1458 18.5128 17.8189 18.8925L9.07564 11.3609C9.77503 10.5489 10.5344 9.78774 11.3464 9.08836ZM8.71596 11.7878L17.6517 19.0905C17.3356 19.4774 17.0486 19.8879 16.7925 20.3185L6.87213 14.42C7.42256 13.4954 8.04019 12.6162 8.71596 11.7878ZM6.59419 14.9014L16.6635 20.5437C16.4201 20.9779 16.2094 21.4302 16.0313 21.9007L5.23721 17.8134C5.61869 16.8052 6.07283 15.8315 6.59419 14.9014ZM5.03375 18.3693C5.03738 18.3584 5.04102 18.3475 5.04465 18.3366L15.9405 22.1441C15.777 22.611 15.648 23.096 15.5554 23.592L4.21629 21.4411C4.41611 20.3893 4.69042 19.3629 5.03375 18.3693ZM4.12364 21.9915L15.5136 23.8499C15.4518 24.2405 15.4101 24.6383 15.3937 25.0416C15.3901 25.1397 15.3883 25.2414 15.3883 25.3413L3.84934 25.1924C3.86024 24.1024 3.9547 23.0343 4.12364 21.9915ZM3.84934 25.7482L15.3883 25.5993C15.3992 26.4331 15.5118 27.2415 15.7153 28.0153C14.6998 27.9299 13.668 27.9953 12.6634 28.1534C11.944 28.2787 11.2683 28.5476 10.5525 28.6566C9.49527 28.8401 8.39806 28.7165 7.35352 28.5549C6.25449 28.3805 5.13366 28.1389 4.01646 28.1607C3.91473 27.3686 3.86024 26.5639 3.84934 25.7482ZM4.05279 28.4586C4.42701 28.5149 4.79759 28.5767 5.16273 28.6566C5.86211 28.8055 6.57966 29.0108 7.30629 29.0344C8.04383 29.0671 8.77046 28.9781 9.49164 28.9363C10.2146 28.8946 10.9413 28.8237 11.6606 28.7256C12.3764 28.6293 13.0721 28.5785 13.7824 28.5694C14.5 28.5549 15.2048 28.593 15.9078 28.6584C16.2457 29.6666 16.738 30.604 17.3593 31.4432C16.2493 31.3161 15.1158 31.3796 14.0167 31.5522C13.2974 31.6776 12.6216 31.9464 11.9059 32.0554C10.8486 32.2389 9.75141 32.1154 8.70688 31.9537C7.40076 31.7466 6.06193 31.445 4.73401 31.6013C4.43064 30.5803 4.20175 29.5322 4.05279 28.4586ZM25.4558 47.0676C24.9689 47.0676 24.4857 47.0513 24.0061 47.0186C23.3649 46.9768 22.7327 46.906 22.1096 46.8097C21.8953 46.7788 21.6845 46.7425 21.4738 46.7007C20.2476 46.4718 19.0578 46.1394 17.9133 45.7143C18.4238 45.5672 18.9161 45.3401 19.3938 45.133C19.897 44.9114 20.4293 44.766 20.9724 44.6897C22.3058 44.5262 23.6719 44.6788 24.889 45.2656C26.0716 45.8378 27.4104 46.0267 28.7147 45.9341C29.7029 45.8996 30.6457 45.5544 31.5504 45.2093C32.426 44.9041 33.3343 44.8151 34.2662 44.8296C34.5005 44.8332 34.7331 44.8441 34.9656 44.8678C32.0954 46.2756 28.8673 47.0676 25.4558 47.0676ZM35.7104 44.4826C34.2862 44.1466 32.7457 44.1466 31.3488 44.6262C30.5331 44.9277 29.7665 45.2783 28.9018 45.3691C27.9063 45.4709 26.8818 45.4727 25.9026 45.2438C25.0579 45.0276 24.2387 44.6498 23.3612 44.5426C22.0006 44.3846 20.5964 44.4064 19.283 44.8332C18.6799 45.0276 18.0968 45.2402 17.4737 45.3292C17.3393 45.3473 17.203 45.3637 17.0668 45.3782C14.9396 44.4808 12.9849 43.2528 11.2683 41.7596C11.499 41.805 11.7279 41.8595 11.9513 41.9267C12.5853 42.1066 13.1611 42.4099 13.7951 42.6152C15.0867 43.033 16.48 43.0766 17.8152 42.8241C18.471 42.6951 19.1014 42.4099 19.7081 42.1556C20.2313 41.934 20.7817 41.7887 21.3448 41.7124C22.7236 41.5507 24.1333 41.6996 25.3995 42.29C26.6275 42.8641 28.0044 43.0494 29.3487 42.9585C30.3678 42.924 31.3397 42.5807 32.2789 42.2337C33.1871 41.9285 34.1299 41.8395 35.0927 41.8541C35.734 41.8631 36.3662 41.9285 36.9802 42.0993C37.5124 42.241 38.0519 42.459 38.6205 42.5934C37.7068 43.2982 36.7331 43.9304 35.7104 44.4826ZM38.9275 42.3554C38.1482 42.1211 37.4252 41.7178 36.6259 41.518C35.1418 41.1728 33.5432 41.1674 32.0845 41.6506C31.2379 41.954 30.4405 42.3046 29.5467 42.3954C28.5167 42.4971 27.4576 42.4989 26.444 42.2701C25.5702 42.0539 24.7201 41.676 23.8154 41.567C22.4112 41.4108 20.9652 41.4308 19.6064 41.8559C18.9815 42.0502 18.3765 42.2646 17.7335 42.3518C16.4855 42.5189 15.1539 42.5226 13.9314 42.1865C13.3192 42.0194 12.6979 41.7487 12.0294 41.627C11.6861 41.5561 11.3391 41.5198 10.9921 41.5089C9.99847 40.6133 9.08836 39.6269 8.27453 38.5606C8.72868 38.6151 9.17737 38.6896 9.61699 38.804C10.3636 38.9839 11.0594 39.2909 11.806 39.4979C13.321 39.9121 14.9214 39.9539 16.471 39.705C17.8061 39.4798 19.0087 38.784 20.3566 38.6278C20.4947 38.606 20.7853 38.5733 20.9234 38.566C22.4457 38.4461 23.9825 38.6096 25.4085 39.1691C26.8673 39.745 28.4549 39.9248 30.0136 39.8358C31.1907 39.8049 32.3333 39.4616 33.4396 39.1128C34.5241 38.804 35.6359 38.7168 36.7658 38.7314C37.5179 38.7404 38.2645 38.804 38.9929 38.9784C39.7214 39.1437 40.4607 39.4053 41.2346 39.5306C41.4181 39.5633 41.6034 39.587 41.7887 39.6051C40.9221 40.6079 39.963 41.5271 38.9275 42.3554ZM41.9758 39.389C41.7451 39.349 41.518 39.3018 41.2945 39.2454C40.5461 39.071 39.854 38.7513 39.1074 38.5406C38.3535 38.3135 37.5615 38.2118 36.7822 38.1755C35.6141 38.1173 34.4024 38.19 33.2707 38.5243C32.1771 38.8658 31.1271 39.2418 29.9772 39.2981C28.8546 39.3744 27.7138 39.3653 26.6057 39.1492C25.4848 38.9076 24.3822 38.4897 23.225 38.4171C21.6827 38.3026 20.1132 38.3281 18.6091 38.7314C17.8715 38.9312 17.1522 39.1492 16.3947 39.2327C15.2865 39.3671 14.1348 39.3781 13.0194 39.26C11.8677 39.1564 10.8341 38.6987 9.67693 38.5043C9.16647 38.4153 8.65238 38.3826 8.13829 38.3862C7.44072 37.4525 6.81582 36.4606 6.27266 35.4197C6.77585 35.4742 7.27541 35.5487 7.76407 35.6613C8.5997 35.8394 9.3881 36.1518 10.2237 36.3589C11.9131 36.7713 13.6807 36.8112 15.4028 36.566C16.8906 36.3407 18.2585 35.6395 19.759 35.4869C19.9134 35.4651 20.2367 35.4324 20.3911 35.4252C22.0878 35.3053 23.799 35.4669 25.4085 36.0301C27.0471 36.6078 28.8037 36.7822 30.5349 36.695C30.9582 36.6786 31.4214 36.635 31.8374 36.5714C32.6022 36.4715 33.5977 36.17 34.3534 35.972C35.5741 35.6613 36.8203 35.5741 38.0828 35.5887C38.9239 35.5977 39.7595 35.6595 40.5788 35.8357C41.3963 36.0028 42.2265 36.2644 43.0857 36.388C43.4 36.437 43.7197 36.4679 44.0394 36.486C43.4345 37.5124 42.7405 38.4825 41.9758 39.389ZM24.4021 35.4724C24.4694 35.4797 24.5348 35.4869 24.602 35.4906C24.6329 35.4942 24.6656 35.496 24.6964 35.4996H24.7037C24.7873 35.5051 24.869 35.5105 24.9526 35.5142C25.0216 35.5178 25.0888 35.5214 25.1597 35.5233C25.1815 35.5233 25.2033 35.5251 25.2269 35.5251C25.3032 35.5269 25.3795 35.5287 25.4558 35.5287C26.969 35.5287 28.4023 35.1945 29.6884 34.5986C29.7574 34.5641 29.8265 34.5278 29.8973 34.4951C29.9554 34.466 30.0136 34.4388 30.0699 34.4115C30.0717 34.4097 30.0735 34.4079 30.0735 34.4079C31.8774 33.5541 33.8938 33.0763 36.021 33.0763C36.3752 33.0763 36.7277 33.089 37.0764 33.1145C38.4607 33.218 39.7868 33.525 41.0275 34.0046C42.2392 34.4715 43.3709 35.1036 44.3918 35.8739C44.3155 36.0119 44.2392 36.1463 44.1593 36.2826C43.816 36.2354 43.4744 36.1772 43.1402 36.1009C42.3028 35.9265 41.518 35.6032 40.6824 35.3925C38.9857 34.9619 37.229 34.9274 35.4924 35.1218C34.635 35.229 33.783 35.4851 32.9637 35.7231C32.1571 35.9592 31.3415 36.0955 30.5022 36.1518C29.247 36.2263 27.9736 36.219 26.7328 36.0028C25.9517 35.8521 25.1778 35.6323 24.3949 35.4706C24.3985 35.4724 24.4003 35.4724 24.4021 35.4724ZM23.3503 35.3035C23.2196 35.2889 23.0888 35.278 22.958 35.2708C21.2431 35.1581 19.5046 35.1799 17.8225 35.5832C16.9941 35.7849 16.1839 36.0028 15.3392 36.0882C14.0967 36.2226 12.8142 36.2335 11.5662 36.1155C10.2837 36.0137 9.11016 35.5505 7.8222 35.358C7.27723 35.2726 6.72862 35.2399 6.18365 35.2399C5.62051 34.1318 5.15001 32.9691 4.78124 31.7611C5.368 31.8465 5.94749 31.9264 6.51426 32.0518C7.21365 32.2007 7.9312 32.406 8.65783 32.4296C9.39536 32.4623 10.122 32.3733 10.8432 32.3315C11.5662 32.2897 12.2928 32.2189 13.0122 32.1208C13.7279 32.0245 14.4237 31.9737 15.1339 31.9646C16.0731 31.9464 16.9923 32.0154 17.9115 32.1244C19.3121 33.7085 21.205 34.8475 23.3503 35.3035ZM19.0759 17.6644L11.7715 8.72868C12.5998 8.05109 13.479 7.43345 14.4019 6.88303L20.3003 16.8034C19.8716 17.0595 19.461 17.3484 19.0759 17.6644ZM19.3956 25.2905C19.3993 25.0216 19.4211 24.7546 19.461 24.493L22.4003 24.9726C21.4102 25.1633 20.4039 25.2687 19.3956 25.2905ZM22.6092 24.929L19.4865 24.3367C19.5392 24.0388 19.6155 23.7464 19.7117 23.4612L23.3921 24.7473C23.1342 24.8145 22.8726 24.8763 22.6092 24.929ZM23.4884 24.7255L19.7644 23.3158C19.8698 23.0324 19.9951 22.7563 20.1404 22.4929L23.9171 24.6092C23.7754 24.6492 23.6319 24.6873 23.4884 24.7255ZM23.9771 24.5911L20.2167 22.3549C20.3693 22.0933 20.5401 21.8426 20.7272 21.6064L24.2695 24.5021C24.1733 24.5329 24.0752 24.562 23.9771 24.5911ZM24.315 24.4875L20.8271 21.4829C21.0215 21.2504 21.234 21.0324 21.4611 20.8307L24.5457 24.4131C24.4694 24.4385 24.3931 24.4639 24.315 24.4875ZM24.582 24.4022L21.5792 20.729C21.8099 20.5328 22.0569 20.353 22.3167 20.1931L24.78 24.3349C24.7146 24.3567 24.6474 24.3804 24.582 24.4022ZM24.8127 24.3222L22.453 20.1132C22.7145 19.9606 22.9888 19.828 23.2759 19.7154L24.9962 24.2586C24.9362 24.2804 24.8745 24.3022 24.8127 24.3222ZM25.0325 24.2459C25.0307 24.2459 25.0307 24.2459 25.0289 24.2477L23.4248 19.659C23.4993 19.6318 23.5738 19.6064 23.6501 19.5828C23.8681 19.5137 24.0861 19.4574 24.3077 19.4138L25.2123 24.1805C25.1506 24.2005 25.0924 24.2241 25.0325 24.2459ZM25.2432 24.166L24.4639 19.3848C24.7673 19.3321 25.0725 19.303 25.3758 19.2957L25.4376 24.0915C25.3722 24.1169 25.3068 24.1424 25.2432 24.166ZM32.5895 5.05191L28.7819 15.9496C28.3133 15.7861 27.83 15.6553 27.3341 15.5627L29.4849 4.22355C30.5495 4.42156 31.5867 4.70131 32.5895 5.05191ZM25.7337 3.84752C26.8218 3.86205 27.8918 3.9547 28.9363 4.12364L27.078 15.5154C26.5911 15.4373 26.0916 15.3937 25.5847 15.3865L25.7337 3.84752ZM25.4739 24.0788L25.5357 19.2957C25.8427 19.2975 26.1497 19.3212 26.4513 19.3666L25.6974 23.988C25.6229 24.0188 25.5484 24.0497 25.4739 24.0788ZM25.7392 23.9716L26.6075 19.3938C26.909 19.4483 27.207 19.5246 27.4994 19.6227L26.0207 23.8554C25.9263 23.8935 25.8336 23.9317 25.7392 23.9716ZM26.4767 23.6464C26.3441 23.7082 26.2115 23.77 26.077 23.8281L27.6502 19.6718C27.939 19.7771 28.2188 19.9043 28.4895 20.0533L26.4767 23.6464ZM26.5621 23.6083L28.6293 20.1332C28.8946 20.2876 29.1489 20.462 29.3923 20.6545L27.2705 23.2486C27.0362 23.374 26.8019 23.4939 26.5621 23.6083ZM30.0045 21.5519C29.9227 21.5864 29.8428 21.6228 29.7774 21.6555C29.6321 21.7354 29.1035 22.1314 28.96 22.2313C28.4713 22.5638 27.9681 22.8708 27.4504 23.1542L29.514 20.7581C29.7484 20.9561 29.9682 21.1723 30.1734 21.4084L30.0045 21.5519ZM29.0254 16.0368L33.1127 5.24084C34.1209 5.62414 35.0946 6.07828 36.0246 6.60146L30.3823 16.6708C29.95 16.4292 29.4958 16.2166 29.0254 16.0368ZM30.6094 16.8034L36.5079 6.88303C36.6695 6.97931 36.8294 7.07741 36.9892 7.17732C37.7377 7.65145 38.457 8.16917 39.1401 8.72868L31.8356 17.6644C31.4487 17.3484 31.0399 17.0595 30.6094 16.8034ZM33.0563 18.8489C32.7403 18.4855 32.3987 18.1458 32.0336 17.8316L39.5652 9.08655C40.3772 9.78775 41.1365 10.5471 41.8359 11.3591L33.0909 18.8906C33.08 18.8779 33.0672 18.8634 33.0563 18.8489ZM33.258 19.0923L42.1956 11.7878C42.8732 12.6162 43.489 13.4954 44.0394 14.42L34.119 20.3185C33.8611 19.8879 33.5741 19.4774 33.258 19.0923ZM34.2462 20.5437L44.3173 14.9014C44.8387 15.8315 45.2947 16.8052 45.6761 17.8134L34.882 21.9007C34.704 21.4302 34.4896 20.9779 34.2462 20.5437ZM34.9674 22.1459L45.8651 18.3384C46.2157 19.3412 46.4936 20.3784 46.6934 21.4429L35.3543 23.5938C35.2617 23.096 35.1309 22.6128 34.9674 22.1459ZM35.5251 25.3395C35.5196 24.8327 35.476 24.3349 35.3979 23.8481L46.7915 21.9897C46.9605 23.0343 47.0531 24.1024 47.0658 25.1905L35.5251 25.3395Z" fill="#83D6FA"/>
<path d="M60.4765 46.8349C60.5147 47.122 60.5565 47.4253 60.5982 47.7432C60.64 48.0611 60.6782 48.3681 60.709 48.6642C60.7399 48.9603 60.7599 49.2274 60.7672 49.469C60.7744 49.7106 60.7672 49.8941 60.7436 50.023C60.7199 50.152 60.6745 50.2047 60.6037 50.1865C60.5347 50.1666 60.4329 50.0448 60.3003 49.8196C60.3003 49.2837 60.2749 48.7769 60.224 48.2991C60.1732 47.8213 60.1096 47.3418 60.0315 46.8604C59.8534 46.8604 59.6772 46.8313 59.5065 46.7732C59.3357 46.715 59.1795 46.6497 59.0396 46.5752C58.8997 46.5007 58.7889 46.4244 58.7072 46.3426C58.6254 46.2609 58.5855 46.1937 58.5855 46.1392C58.64 46.1555 58.7253 46.1737 58.8416 46.1973C58.9579 46.2209 59.0796 46.2427 59.2086 46.2609C59.3375 46.2809 59.4647 46.2954 59.5937 46.3081C59.7226 46.319 59.8244 46.3263 59.9025 46.3263C59.8553 45.9775 59.8117 45.6614 59.7681 45.3835C59.7245 45.1037 59.6827 44.8312 59.6391 44.5678C59.5955 44.3044 59.5537 44.0338 59.5101 43.7577C59.4665 43.4815 59.4265 43.1727 59.3884 42.8312C59.1468 42.7313 58.9052 42.6368 58.6599 42.5514C58.4147 42.4661 58.1804 42.3698 57.9551 42.2608C57.9406 42.2136 57.9279 42.1809 57.9206 42.1627C57.9133 42.1427 57.9115 42.1264 57.9151 42.11C57.9188 42.0955 57.9315 42.0773 57.9497 42.0573C57.9696 42.0374 58.0023 42.0083 58.0478 41.9701C58.1095 41.9538 58.2548 41.9792 58.4837 42.0464C58.7126 42.1118 58.9851 42.2063 59.2994 42.3262C59.6137 42.4461 59.9515 42.5896 60.313 42.7567C60.6745 42.9238 61.0233 43.0946 61.3612 43.269C61.6991 43.4434 62.0025 43.6178 62.2695 43.794C62.5383 43.9684 62.7327 44.13 62.8581 44.2772C62.9743 44.3698 63.0543 44.4788 63.096 44.6042C63.1378 44.7277 63.1505 44.8567 63.1306 44.9893C63.1106 45.1219 63.0615 45.2527 62.9852 45.3853C62.9071 45.5179 62.8108 45.6414 62.6946 45.7577C62.5783 45.8667 62.4403 45.9811 62.2804 46.101C62.1205 46.2209 61.948 46.3336 61.7627 46.4389C61.5756 46.5443 61.3739 46.6333 61.1577 46.7078C60.947 46.775 60.7181 46.8204 60.4765 46.8349ZM60.3257 46.299C60.6909 46.299 61.0142 46.2609 61.2994 46.1828C61.5828 46.1047 61.8208 45.9957 62.0152 45.8558C62.2095 45.7159 62.3512 45.5524 62.4403 45.3671C62.5293 45.18 62.5583 44.9875 62.5274 44.784C62.5111 44.6296 62.4076 44.4716 62.2132 44.3117C62.0188 44.1518 61.7845 43.9974 61.5083 43.8448C61.2322 43.6941 60.9416 43.5451 60.6346 43.4016C60.3276 43.2581 60.0533 43.12 59.8135 42.9874C59.828 43.1509 59.8498 43.3271 59.8771 43.5179C59.9043 43.7086 59.937 43.9302 59.977 44.1827C60.0151 44.4352 60.0642 44.7332 60.1223 45.0747C60.1804 45.418 60.2476 45.8249 60.3257 46.299Z" fill="#3771F5"/>
<path d="M65.2197 46.8005C65.2433 46.7933 65.3087 46.7715 65.4177 46.7369C65.5267 46.7024 65.6157 46.697 65.6865 46.7188C65.9118 46.7115 66.0844 46.7696 66.2042 46.8932C66.3241 47.0167 66.335 47.2583 66.2333 47.6162C66.0862 48.0122 65.89 48.3428 65.6447 48.6062C65.3995 48.8696 65.1107 49.1221 64.7764 49.3637C64.8545 49.5654 64.9708 49.678 65.1252 49.7016C65.2796 49.7252 65.4431 49.6998 65.6139 49.6253C65.7846 49.5508 65.9517 49.4527 66.1152 49.3292C66.2787 49.2057 66.4095 49.0967 66.5113 49.0022C66.6747 48.8623 66.8037 48.7443 66.9018 48.6462C66.9981 48.5499 67.1016 48.43 67.2106 48.2901C67.2343 48.2756 67.247 48.2774 67.2506 48.2956C67.2542 48.3156 67.2524 48.3446 67.2452 48.3828C67.2379 48.4209 67.2252 48.4754 67.2106 48.5463C67.187 48.6008 67.1634 48.6498 67.1416 48.6916C67.118 48.7352 67.0853 48.7806 67.0417 48.8315C66.9981 48.8823 66.9436 48.9423 66.8728 49.0113C66.8037 49.0821 66.7165 49.1748 66.6166 49.2911C66.5004 49.4 66.3877 49.5072 66.2787 49.6108C66.1697 49.7161 66.0553 49.807 65.9354 49.8851C65.8155 49.9632 65.6829 50.0177 65.5394 50.0486C65.3959 50.0795 65.2306 50.0795 65.0435 50.0486C64.8872 49.9941 64.7637 49.9359 64.6711 49.8742C64.5784 49.8124 64.5057 49.7488 64.4549 49.6816C64.404 49.6162 64.3677 49.5563 64.3441 49.5018C64.3205 49.4473 64.3059 49.4 64.2968 49.3619C64.2587 49.2057 64.2423 48.9968 64.2496 48.7334C64.2569 48.47 64.335 48.1284 64.4821 47.7088C64.5839 47.4908 64.691 47.3074 64.8091 47.1548C64.9272 47.004 65.0634 46.8859 65.2197 46.8005ZM64.7056 48.8623C64.8073 48.8078 64.9254 48.7315 65.0616 48.6353C65.1979 48.539 65.325 48.4264 65.4467 48.2974C65.5666 48.1684 65.672 48.0267 65.761 47.8723C65.85 47.7161 65.8991 47.5544 65.9063 47.3836C65.9299 47.2674 65.9263 47.1856 65.8954 47.1384C65.8791 47.1148 65.8645 47.1039 65.8482 47.1039C65.7156 47.0421 65.5848 47.0621 65.4522 47.162C65.3196 47.2638 65.1997 47.4073 65.0907 47.5926C64.9817 47.7797 64.8909 47.9867 64.8164 48.2156C64.7437 48.4445 64.7056 48.6607 64.7056 48.8623Z" fill="#3771F5"/>
<path d="M69.2142 46.4154C69.2069 46.3445 69.2432 46.3282 69.325 46.3627C69.4067 46.3972 69.4903 46.4354 69.5757 46.4735C69.6065 46.6515 69.6302 46.7932 69.6447 46.8986C69.661 47.004 69.6719 47.1021 69.6792 47.1965C69.6865 47.2892 69.6956 47.3909 69.7028 47.4999C69.7101 47.6089 69.7228 47.7524 69.7373 47.9304C69.8064 47.7524 69.8918 47.5871 69.9935 47.4345C70.0952 47.2837 70.2242 47.1529 70.384 47.0439C70.5439 46.9349 70.7328 46.855 70.9545 46.8059C71.1761 46.7551 71.4413 46.7387 71.7519 46.7533C71.7519 46.815 71.7301 46.8677 71.6883 46.9113C71.6447 46.9549 71.5467 46.9876 71.3904 47.0094C71.1652 47.0476 70.969 47.1238 70.8019 47.2365C70.6347 47.3491 70.4912 47.4799 70.3713 47.627C70.2514 47.7742 70.1533 47.9322 70.0807 48.0994C70.0062 48.2665 69.9462 48.4191 69.9008 48.559C69.8936 48.628 69.8827 48.7279 69.8718 48.8569C69.8609 48.9859 69.8518 49.1203 69.8482 49.2638C69.8445 49.4073 69.8409 49.5472 69.8373 49.6834C69.8336 49.8197 69.8391 49.9268 69.8554 50.0031C69.8627 50.0413 69.8463 50.0703 69.8027 50.0903C69.7591 50.1103 69.7119 50.123 69.6574 50.1303C69.6029 50.1376 69.5521 50.1339 69.5066 50.1194C69.4612 50.1049 69.4376 50.0776 69.4376 50.0377C69.4521 49.2384 69.4322 48.5481 69.374 47.9704C69.3141 47.3927 69.2614 46.875 69.2142 46.4154Z" fill="#3771F5"/>
<path d="M77.6268 43.8647C77.5414 43.8647 77.4814 43.8647 77.4469 43.8647C77.4124 43.8647 77.3888 43.8629 77.3779 43.8593C77.367 43.8557 77.3597 43.8502 77.3597 43.8411C77.3597 43.8339 77.3561 43.8212 77.3488 43.8066C77.3325 43.8066 77.3125 43.7703 77.2852 43.6958C77.258 43.6213 77.2217 43.5432 77.1744 43.4578C77.1272 43.3724 77.0673 43.2925 76.9946 43.218C76.9201 43.1436 76.8329 43.1072 76.733 43.1072C76.515 43.0527 76.337 43.0818 76.1971 43.1944C76.0572 43.307 75.9428 43.4705 75.8538 43.6831C75.7648 43.8974 75.6976 44.1427 75.6558 44.4224C75.6122 44.7022 75.5813 44.9838 75.5631 45.2671C75.5431 45.5505 75.5341 45.823 75.5341 46.0828C75.5341 46.3426 75.5304 46.5551 75.5232 46.7186C75.6703 46.7113 75.7938 46.7059 75.8901 46.7004C75.9864 46.6968 76.0772 46.6932 76.159 46.6895C76.2407 46.6859 76.317 46.6823 76.386 46.6786C76.4551 46.675 76.5332 46.6732 76.6186 46.6732C76.6567 46.6804 76.6967 46.7041 76.7348 46.7422C76.773 46.7804 76.8075 46.824 76.8329 46.8712C76.8602 46.9184 76.8802 46.9602 76.8911 47.0002C76.902 47.0383 76.9001 47.0583 76.8856 47.0583C76.7457 47.0819 76.6222 47.0964 76.5132 47.1055C76.4042 47.1128 76.2988 47.1219 76.1989 47.1291C76.0972 47.1364 75.9955 47.1437 75.8901 47.1473C75.7848 47.1509 75.6667 47.1564 75.5341 47.1655C75.5413 47.5615 75.5577 47.9175 75.5813 48.2318C75.6049 48.5461 75.6267 48.8458 75.6449 49.1292C75.6649 49.4126 75.683 49.6905 75.703 49.963C75.723 50.2355 75.7357 50.5225 75.743 50.8259C75.7266 50.8876 75.6867 50.9167 75.6213 50.9131C75.5559 50.9095 75.4868 50.904 75.4178 50.8949C75.3942 50.8949 75.3797 50.8913 75.3706 50.884C75.3633 50.8767 75.356 50.8404 75.3524 50.7786C75.3488 50.7169 75.3451 50.6115 75.3415 50.4644C75.3379 50.3172 75.3306 50.1065 75.3179 49.8358C75.307 49.5634 75.2888 49.2146 75.2652 48.7877C75.2416 48.3608 75.2071 47.8322 75.1598 47.2036C74.9818 47.22 74.8383 47.2309 74.7293 47.2381C74.6203 47.2454 74.5259 47.2527 74.4441 47.2563C74.3624 47.2599 74.2824 47.2617 74.2061 47.2617C74.128 47.2617 74.0317 47.2654 73.9155 47.2726C73.861 47.2726 73.8337 47.2599 73.8337 47.2327C73.8337 47.2054 73.8428 47.1709 73.8628 47.1273C73.8828 47.0855 73.9064 47.0438 73.9337 47.0056C73.9609 46.9675 73.9791 46.9402 73.9863 46.9239C74.0336 46.9093 74.168 46.8894 74.3933 46.8657C74.6185 46.8421 74.8674 46.8149 75.1381 46.784C75.0999 46.0392 75.1054 45.4143 75.1562 44.9147C75.2071 44.4134 75.2797 44.0083 75.3778 43.6976C75.4741 43.387 75.5849 43.1563 75.7103 43.0037C75.8338 42.8529 75.9501 42.753 76.0591 42.7058C76.3315 42.5968 76.5731 42.5913 76.7875 42.6876C77.0019 42.7839 77.1781 42.9147 77.3179 43.0782C77.4578 43.2417 77.5559 43.407 77.6159 43.5741C77.6667 43.7339 77.6722 43.8339 77.6268 43.8647Z" fill="#3771F5"/>
<path d="M79.7577 46.8005C79.7814 46.7933 79.8468 46.7715 79.9558 46.7369C80.0647 46.7024 80.1538 46.697 80.2246 46.7188C80.4499 46.7115 80.6224 46.7696 80.7423 46.8932C80.8622 47.0167 80.8731 47.2583 80.7714 47.6162C80.6243 48.0122 80.4281 48.3428 80.1828 48.6062C79.9376 48.8696 79.6488 49.1221 79.3145 49.3637C79.3926 49.5654 79.5089 49.678 79.6633 49.7016C79.8177 49.7252 79.9812 49.6998 80.1519 49.6253C80.3227 49.5508 80.4898 49.4527 80.6533 49.3292C80.8168 49.2057 80.9476 49.0967 81.0493 49.0022C81.2128 48.8623 81.3418 48.7443 81.4399 48.6462C81.5362 48.5499 81.6397 48.43 81.7487 48.2901C81.7723 48.2756 81.7851 48.2774 81.7887 48.2956C81.7923 48.3156 81.7905 48.3446 81.7832 48.3828C81.776 48.4209 81.7633 48.4754 81.7487 48.5463C81.7251 48.6008 81.7015 48.6498 81.6797 48.6916C81.6561 48.7352 81.6234 48.7806 81.5798 48.8315C81.5362 48.8823 81.4817 48.9423 81.4108 49.0113C81.3418 49.0821 81.2546 49.1748 81.1547 49.2911C81.0384 49.4 80.9258 49.5072 80.8168 49.6108C80.7078 49.7161 80.5934 49.807 80.4735 49.8851C80.3536 49.9632 80.221 50.0177 80.0775 50.0486C79.934 50.0795 79.7686 50.0795 79.5815 50.0486C79.4253 49.9941 79.3018 49.9359 79.2091 49.8742C79.1165 49.8124 79.0438 49.7488 78.993 49.6816C78.9421 49.6162 78.9058 49.5563 78.8822 49.5018C78.8585 49.4473 78.844 49.4 78.8349 49.3619C78.7968 49.2057 78.7804 48.9968 78.7877 48.7334C78.795 48.47 78.8731 48.1284 79.0202 47.7088C79.1219 47.4908 79.2291 47.3074 79.3472 47.1548C79.4671 47.004 79.6033 46.8859 79.7577 46.8005ZM79.2455 48.8623C79.3472 48.8078 79.4653 48.7315 79.6015 48.6353C79.7378 48.539 79.8649 48.4264 79.9866 48.2974C80.1065 48.1684 80.2119 48.0267 80.3009 47.8723C80.3899 47.7161 80.439 47.5544 80.4462 47.3836C80.4698 47.2674 80.4662 47.1856 80.4353 47.1384C80.419 47.1148 80.4045 47.1039 80.3881 47.1039C80.2555 47.0421 80.1247 47.0621 79.9921 47.162C79.8595 47.2638 79.7396 47.4073 79.6306 47.5926C79.5216 47.7797 79.4308 47.9867 79.3563 48.2156C79.2818 48.4445 79.2455 48.6607 79.2455 48.8623Z" fill="#3771F5"/>
<path d="M85.6652 46.684C85.6725 46.7313 85.6362 46.7767 85.5544 46.8239C85.4727 46.8712 85.3691 46.9384 85.2456 47.0274C85.1221 47.1164 84.9858 47.2345 84.8387 47.3834C84.6915 47.5306 84.5589 47.7249 84.4427 47.9665C84.3191 48.2299 84.2283 48.4607 84.1738 48.6532C84.1193 48.8476 84.1302 49.0765 84.2083 49.3399C84.2319 49.3944 84.2646 49.4434 84.3082 49.4852C84.35 49.5288 84.4154 49.5542 84.5008 49.5615C84.6716 49.5306 84.8223 49.487 84.9549 49.4325C85.0876 49.378 85.2111 49.3126 85.3273 49.2345C85.4436 49.1564 85.5562 49.0729 85.6652 48.9838C85.7742 48.8948 85.8868 48.804 86.0031 48.7095C86.1739 48.546 86.3156 48.4043 86.4282 48.2844C86.5408 48.1646 86.6316 48.0628 86.7025 47.9811C86.7715 47.8993 86.8333 47.8394 86.8823 47.8012C86.9332 47.7631 86.9859 47.7504 87.0404 47.7667C87.0095 47.8358 86.9223 47.9847 86.7788 48.21C86.6353 48.4352 86.4482 48.675 86.2193 48.9257C85.9904 49.1782 85.7234 49.4144 85.4218 49.636C85.1203 49.8576 84.7933 49.9957 84.4427 50.0502C84.3028 50.0429 84.1883 50.0266 84.0993 50.0029C84.0103 49.9793 83.9268 49.8867 83.8486 49.7232C83.756 49.5288 83.7197 49.2945 83.7433 49.0183C83.7669 48.7422 83.825 48.4697 83.9177 48.1973C84.0103 47.9248 84.1266 47.6723 84.2664 47.4397C84.4063 47.2072 84.5426 47.0365 84.6734 46.9275C84.8605 46.7949 85.0331 46.7131 85.1911 46.6822C85.3528 46.6532 85.509 46.6532 85.6652 46.684Z" fill="#3771F5"/>
<path d="M90.4539 46.6257C90.7881 46.6021 91.1151 46.5766 91.4385 46.5494C91.76 46.5222 92.0961 46.4931 92.4467 46.4622C92.5248 46.4695 92.5757 46.5113 92.5975 46.5839C92.6211 46.6584 92.5902 46.702 92.5048 46.7183C92.2178 46.7492 91.8872 46.7928 91.5148 46.8473C91.1424 46.9018 90.7881 46.9708 90.4539 47.058C90.4684 47.2996 90.4775 47.5449 90.4775 47.7974C90.4775 48.0499 90.4829 48.2988 90.4957 48.5422C90.5066 48.7874 90.5302 49.0236 90.5647 49.2525C90.5992 49.4814 90.6555 49.6939 90.7336 49.8883C90.8426 50.0209 90.9516 50.0972 91.0606 50.1208C91.1696 50.1444 91.2713 50.139 91.3694 50.1026C91.4657 50.0681 91.5565 50.0136 91.6383 49.9391C91.72 49.8647 91.7909 49.7938 91.8545 49.723C91.909 49.6685 91.9544 49.6685 91.9889 49.723C92.0234 49.7775 91.9907 49.8592 91.889 49.9682C91.8417 50.0227 91.7836 50.0808 91.7146 50.1426C91.6456 50.2044 91.562 50.257 91.4639 50.3006C91.3658 50.3424 91.2586 50.3697 91.1369 50.3824C91.017 50.3933 90.8862 50.3806 90.7464 50.3424C90.5683 50.2952 90.4357 50.1517 90.3503 49.9119C90.265 49.6721 90.2014 49.3887 90.1578 49.0672C90.1142 48.7456 90.0851 48.4096 90.0706 48.059C90.0542 47.7102 90.0361 47.3941 90.0124 47.1162C89.6709 47.1471 89.4203 47.1743 89.2604 47.1979C89.1005 47.2215 88.9861 47.2361 88.9171 47.2452C88.848 47.2524 88.8008 47.2488 88.7772 47.2343C88.7536 47.2197 88.7118 47.1834 88.6482 47.1289C88.6555 47.0907 88.6573 47.0526 88.6536 47.0181C88.65 46.9836 88.65 46.9545 88.6536 46.9309C88.6573 46.9073 88.6736 46.8836 88.7009 46.8618C88.7281 46.8382 88.7808 46.8201 88.8589 46.8037C88.9752 46.7728 89.1441 46.7547 89.3657 46.751C89.5874 46.7474 89.8035 46.7292 90.0124 46.6984C90.0052 46.4495 89.9961 46.2551 89.9888 46.1152C89.9816 45.9754 89.9725 45.8536 89.9652 45.7483C89.9579 45.6429 89.9507 45.5412 89.9471 45.4395C89.9434 45.3396 89.9416 45.2069 89.9416 45.0435C89.9416 45.0053 89.9634 44.9762 90.0052 44.9563C90.047 44.9363 90.096 44.9254 90.1505 44.9217C90.205 44.9181 90.2559 44.9254 90.3013 44.9454C90.3485 44.9653 90.3794 44.9944 90.3939 45.0326C90.4176 45.1016 90.4321 45.2051 90.4412 45.3414C90.4484 45.4776 90.4539 45.6211 90.4593 45.7719C90.463 45.9227 90.4648 46.0771 90.4648 46.2315C90.4648 46.3859 90.4611 46.5167 90.4539 46.6257Z" fill="#3771F5"/>
<path d="M99.994 42.0466C100.041 42.0938 100.074 42.1447 100.092 42.1974C100.112 42.2519 100.123 42.31 100.127 42.3718C100.13 42.4335 100.132 42.5062 100.132 42.5879C100.132 42.6697 100.136 42.7641 100.143 42.8731C100.546 43.0911 100.982 43.3127 101.447 43.538C101.914 43.7633 102.35 44.0067 102.757 44.2664C103.164 44.5262 103.52 44.8114 103.823 45.1221C104.127 45.4327 104.325 45.7778 104.417 46.1593C104.495 46.6335 104.457 47.084 104.307 47.5109C104.156 47.9378 103.916 48.3247 103.591 48.6698C103.266 49.015 102.868 49.3075 102.403 49.5436C101.936 49.7798 101.431 49.9487 100.888 50.0505C100.693 50.0886 100.504 50.1013 100.323 50.085C100.141 50.0704 99.974 50.0286 99.8214 49.9632C99.6707 49.8979 99.5399 49.8052 99.4309 49.6889C99.3219 49.5727 99.2438 49.4364 99.1983 49.282C99.1911 49.1894 99.2038 49.1095 99.2383 49.0441C99.2728 48.9787 99.3092 48.9314 99.3491 48.9042C99.3873 48.8769 99.4182 48.8679 99.4418 48.8751C99.4654 48.8824 99.4618 48.9187 99.4309 48.9805C99.4309 49.144 99.4618 49.2748 99.5235 49.371C99.5853 49.4691 99.6634 49.5436 99.756 49.5981C99.8487 49.6526 99.9468 49.6926 100.047 49.7198C100.148 49.7471 100.234 49.7689 100.303 49.7834C100.265 49.5418 100.228 49.2421 100.197 48.8806C100.167 48.5191 100.134 48.1321 100.099 47.7161C100.065 47.3001 100.03 46.8732 99.9995 46.4354C99.9686 45.9958 99.9377 45.5726 99.9068 45.1657C99.8759 44.7569 99.8432 44.3845 99.8087 44.0466C99.7742 43.7088 99.7397 43.4345 99.7106 43.2256C99.4999 43.1329 99.3328 43.053 99.2092 42.9876C99.0857 42.9222 98.9785 42.864 98.8895 42.8132C98.8005 42.7623 98.7133 42.7187 98.6279 42.6788C98.5426 42.6406 98.4336 42.6006 98.301 42.5625C98.2392 42.4844 98.221 42.4226 98.2483 42.3754C98.2755 42.3282 98.2973 42.2628 98.3119 42.1774C98.5062 42.2246 98.6606 42.2682 98.7787 42.3118C98.895 42.3554 98.9949 42.3972 99.0748 42.4408C99.1566 42.4844 99.2383 42.5225 99.3201 42.5571C99.4018 42.5916 99.5126 42.6261 99.6525 42.6551C99.6525 42.5861 99.6507 42.5334 99.647 42.4971C99.6434 42.4608 99.6398 42.4335 99.6361 42.4099C99.6325 42.3863 99.6289 42.3645 99.6252 42.3463C99.6216 42.3263 99.6198 42.2973 99.6198 42.2591C99.6598 42.0775 99.7851 42.0084 99.994 42.0466ZM100.403 46.1357C100.417 46.2683 100.435 46.4373 100.455 46.6425C100.475 46.8478 100.494 47.0694 100.514 47.3074C100.534 47.5436 100.554 47.787 100.577 48.0359C100.601 48.2847 100.619 48.5172 100.635 48.7352C100.65 48.9532 100.666 49.1476 100.682 49.3184C100.699 49.4891 100.71 49.6126 100.717 49.6908C100.895 49.7144 101.138 49.6835 101.445 49.5981C101.752 49.5127 102.07 49.3674 102.401 49.1603C102.732 48.955 103.042 48.688 103.333 48.3628C103.624 48.0377 103.847 47.6398 104.003 47.1748C104.058 46.8169 104.038 46.4954 103.945 46.2084C103.852 45.9214 103.711 45.6634 103.52 45.4345C103.329 45.2056 103.099 45.0004 102.826 44.8169C102.554 44.6352 102.268 44.4626 101.97 44.3046C101.671 44.1447 101.366 43.9976 101.057 43.8614C100.746 43.7251 100.455 43.587 100.183 43.4472C100.183 43.5162 100.19 43.6288 100.207 43.7851C100.221 43.9413 100.237 44.1157 100.254 44.31C100.27 44.5044 100.285 44.7061 100.301 44.915C100.316 45.1239 100.332 45.3183 100.348 45.4981C100.363 45.6761 100.377 45.8251 100.388 45.9413C100.395 46.0558 100.403 46.1212 100.403 46.1357Z" fill="#3771F5"/>
<path d="M107.731 46.8005C107.755 46.7933 107.82 46.7715 107.929 46.7369C108.038 46.7024 108.127 46.697 108.196 46.7188C108.421 46.7115 108.594 46.7696 108.714 46.8932C108.834 47.0167 108.843 47.2583 108.743 47.6162C108.596 48.0122 108.4 48.3428 108.154 48.6062C107.909 48.8696 107.62 49.1221 107.286 49.3637C107.364 49.5654 107.48 49.678 107.635 49.7016C107.789 49.7252 107.953 49.6998 108.124 49.6253C108.294 49.5508 108.461 49.4527 108.625 49.3292C108.788 49.2057 108.919 49.0967 109.021 49.0022C109.184 48.8623 109.313 48.7443 109.411 48.6462C109.508 48.5499 109.611 48.43 109.72 48.2901C109.744 48.2756 109.757 48.2774 109.76 48.2956C109.764 48.3137 109.762 48.3446 109.755 48.3828C109.748 48.4209 109.735 48.4754 109.72 48.5463C109.697 48.6008 109.673 48.6498 109.651 48.6916C109.628 48.7352 109.595 48.7806 109.553 48.8315C109.51 48.8823 109.455 48.9423 109.384 49.0113C109.315 49.0821 109.228 49.1748 109.128 49.2911C109.012 49.4 108.899 49.5072 108.79 49.6108C108.681 49.7161 108.567 49.807 108.447 49.8851C108.327 49.9632 108.194 50.0177 108.051 50.0486C107.907 50.0795 107.742 50.0795 107.555 50.0486C107.399 49.9941 107.275 49.9359 107.183 49.8742C107.09 49.8124 107.017 49.7488 106.966 49.6816C106.915 49.6162 106.879 49.5563 106.856 49.5018C106.832 49.4473 106.817 49.4 106.808 49.3619C106.77 49.2057 106.754 48.9968 106.761 48.7334C106.768 48.47 106.846 48.1284 106.994 47.7088C107.095 47.4908 107.203 47.3074 107.321 47.1548C107.439 47.004 107.575 46.8859 107.731 46.8005ZM107.217 48.8623C107.317 48.8078 107.437 48.7315 107.573 48.6353C107.709 48.539 107.837 48.4264 107.958 48.2974C108.078 48.1684 108.183 48.0267 108.272 47.8723C108.361 47.7161 108.411 47.5544 108.418 47.3836C108.441 47.2674 108.438 47.1856 108.407 47.1384C108.391 47.1148 108.376 47.1039 108.36 47.1039C108.227 47.0421 108.096 47.0621 107.964 47.162C107.831 47.2638 107.711 47.4073 107.602 47.5926C107.493 47.7797 107.402 47.9867 107.328 48.2156C107.255 48.4445 107.217 48.6607 107.217 48.8623Z" fill="#3771F5"/>
<path d="M112.974 46.4279C113.168 46.4588 113.33 46.5024 113.457 46.5569C113.586 46.6114 113.686 46.6713 113.76 46.7367C113.835 46.8021 113.893 46.8712 113.935 46.9402C113.976 47.0092 114.018 47.0764 114.056 47.1382C114.049 47.1691 114.011 47.1655 113.945 47.1273C113.88 47.0892 113.815 47.0492 113.753 47.011C113.582 46.9021 113.377 46.8367 113.135 46.813C112.894 46.7894 112.672 46.804 112.465 46.853C112.26 46.9039 112.094 46.9911 111.969 47.1146C111.845 47.2381 111.813 47.3907 111.876 47.5687C111.938 47.7468 112.049 47.903 112.209 48.0356C112.369 48.1682 112.545 48.2863 112.739 48.3917C112.934 48.497 113.128 48.5915 113.322 48.6769C113.517 48.7622 113.677 48.8476 113.8 48.933C113.955 48.8476 114.087 48.775 114.196 48.7168C114.305 48.6587 114.401 48.6042 114.487 48.5533C114.572 48.5025 114.659 48.4571 114.748 48.4135C114.837 48.3717 114.941 48.3226 115.057 48.2681C115.074 48.2609 115.086 48.2572 115.097 48.2572C115.108 48.2572 115.108 48.2663 115.097 48.2863C115.086 48.3063 115.054 48.3372 115.005 48.3789C114.954 48.4225 114.874 48.4825 114.767 48.5588C114.712 48.5969 114.61 48.6641 114.463 48.7568C114.316 48.8494 114.156 48.9512 113.985 49.0602C114.078 49.1455 114.153 49.2345 114.207 49.329C114.254 49.4144 114.287 49.5052 114.305 49.6033C114.325 49.7014 114.307 49.7995 114.252 49.9012C114.096 50.1501 113.922 50.3445 113.727 50.4844C113.533 50.6242 113.355 50.7205 113.192 50.775C113.083 50.8132 112.963 50.8168 112.83 50.7859C112.697 50.755 112.594 50.6933 112.516 50.5988C112.43 50.4753 112.409 50.3481 112.452 50.221C112.494 50.092 112.567 49.9684 112.668 49.8485C112.77 49.7287 112.886 49.6142 113.017 49.5052C113.15 49.3962 113.266 49.2999 113.366 49.2146C113.297 49.1364 113.161 49.042 112.957 48.9294C112.756 48.8167 112.547 48.6932 112.334 48.557C112.12 48.4207 111.929 48.2754 111.758 48.121C111.588 47.9648 111.495 47.8104 111.479 47.6541C111.448 47.4834 111.469 47.318 111.542 47.1582C111.617 46.9983 111.724 46.8585 111.869 46.7386C112.013 46.6187 112.18 46.5278 112.37 46.4697C112.563 46.4098 112.763 46.397 112.974 46.4279ZM112.868 50.4244C112.954 50.4626 113.05 50.4626 113.159 50.4244C113.268 50.3863 113.37 50.33 113.468 50.2555C113.564 50.181 113.649 50.0992 113.724 50.0102C113.798 49.9212 113.846 49.8413 113.869 49.7723C113.893 49.7105 113.871 49.6433 113.806 49.5688C113.74 49.4943 113.671 49.4344 113.602 49.389C113.517 49.4507 113.42 49.5307 113.311 49.6269C113.202 49.725 113.108 49.8231 113.026 49.9249C112.945 50.0266 112.885 50.1229 112.846 50.2155C112.806 50.3063 112.814 50.3772 112.868 50.4244Z" fill="#3771F5"/>
<path d="M118.38 46.6257C118.714 46.6021 119.041 46.5766 119.364 46.5494C119.686 46.5222 120.022 46.4931 120.373 46.4622C120.451 46.4695 120.502 46.5113 120.523 46.5839C120.547 46.6584 120.516 46.702 120.431 46.7183C120.144 46.7492 119.813 46.7928 119.441 46.8473C119.068 46.9018 118.714 46.9708 118.38 47.058C118.394 47.2996 118.403 47.5449 118.403 47.7974C118.403 48.0499 118.409 48.2988 118.422 48.5422C118.433 48.7874 118.456 49.0236 118.491 49.2525C118.525 49.4814 118.581 49.6939 118.66 49.8883C118.769 50.0209 118.878 50.0972 118.987 50.1208C119.096 50.1444 119.197 50.139 119.295 50.1026C119.392 50.0681 119.483 50.0136 119.564 49.9391C119.646 49.8647 119.717 49.7938 119.78 49.723C119.835 49.6685 119.879 49.6685 119.915 49.723C119.949 49.7775 119.917 49.8592 119.817 49.9682C119.77 50.0227 119.711 50.0808 119.642 50.1426C119.572 50.2044 119.488 50.257 119.392 50.3006C119.294 50.3424 119.186 50.3697 119.065 50.3824C118.945 50.3933 118.814 50.3806 118.674 50.3424C118.496 50.2952 118.364 50.1517 118.278 49.9119C118.193 49.6721 118.129 49.3887 118.086 49.0672C118.042 48.7456 118.013 48.4096 117.998 48.059C117.982 47.7102 117.964 47.3941 117.94 47.1162C117.599 47.1471 117.348 47.1743 117.188 47.1979C117.028 47.2215 116.914 47.2361 116.845 47.2452C116.776 47.2524 116.729 47.2488 116.705 47.2343C116.681 47.2197 116.64 47.1834 116.576 47.1289C116.583 47.0907 116.585 47.0526 116.581 47.0181C116.578 46.9836 116.578 46.9545 116.581 46.9309C116.585 46.9073 116.601 46.8836 116.629 46.8618C116.656 46.8382 116.709 46.8201 116.787 46.8037C116.903 46.7728 117.072 46.7547 117.294 46.751C117.515 46.7474 117.73 46.7292 117.94 46.6984C117.933 46.4495 117.924 46.2551 117.917 46.1152C117.909 45.9754 117.9 45.8536 117.893 45.7483C117.886 45.6429 117.878 45.5412 117.875 45.4395C117.871 45.3396 117.869 45.2069 117.869 45.0435C117.869 45.0053 117.891 44.9762 117.933 44.9563C117.975 44.9363 118.024 44.9254 118.078 44.9217C118.133 44.9181 118.184 44.9254 118.229 44.9454C118.276 44.9653 118.307 44.9944 118.322 45.0326C118.345 45.1016 118.36 45.2051 118.369 45.3414C118.376 45.4776 118.382 45.6211 118.387 45.7719C118.391 45.9227 118.393 46.0771 118.393 46.2315C118.393 46.3859 118.387 46.5167 118.38 46.6257Z" fill="#3771F5"/>
<path d="M122.9 44.9712C122.978 44.9567 123.023 45.0021 123.04 45.1111C123.054 45.2201 123.04 45.3018 122.992 45.3563C122.907 45.4253 122.852 45.4871 122.829 45.5362C122.805 45.587 122.751 45.6197 122.665 45.6343C122.618 45.627 122.578 45.6252 122.544 45.6288C122.509 45.6324 122.48 45.5689 122.456 45.4362C122.487 45.3509 122.536 45.2655 122.602 45.1801C122.667 45.0966 122.767 45.0257 122.9 44.9712ZM122.934 46.4862C122.972 46.8586 123 47.2692 123.016 47.7161C123.032 48.1629 123.058 48.6298 123.098 49.1203C123.129 49.3692 123.159 49.5635 123.19 49.7034C123.221 49.8433 123.245 49.9759 123.259 50.0994C123.136 50.123 123.038 50.1212 122.969 50.094C122.9 50.0667 122.833 50.034 122.771 49.9959C122.754 49.8723 122.738 49.6653 122.718 49.3782C122.698 49.0912 122.68 48.7788 122.66 48.4409C122.64 48.103 122.622 47.7742 122.602 47.4563C122.582 47.1384 122.565 46.8859 122.549 46.6988C122.58 46.6824 122.605 46.6606 122.625 46.6297C122.645 46.5989 122.665 46.5716 122.689 46.548C122.713 46.5244 122.743 46.5062 122.782 46.4899C122.822 46.4699 122.872 46.4699 122.934 46.4862Z" fill="#3771F5"/>
<path d="M126.593 46.5441C126.593 46.7621 126.591 46.9783 126.587 47.1963C126.583 47.4143 126.58 47.6232 126.576 47.8248C126.573 48.0265 126.569 48.2172 126.565 48.3952C126.562 48.5733 126.556 48.7331 126.547 48.873C126.547 48.8421 126.565 48.7658 126.6 48.6459C126.634 48.526 126.683 48.388 126.745 48.2317C126.807 48.0773 126.876 47.912 126.949 47.7358C127.023 47.5614 127.101 47.4052 127.187 47.269C127.272 47.1327 127.359 47.0274 127.448 46.9492C127.537 46.8711 127.621 46.8493 127.699 46.8802C127.87 46.9583 127.989 47.0709 128.06 47.2181C128.129 47.3652 128.18 47.5342 128.211 47.7249C128.242 47.9157 128.273 48.1264 128.304 48.3607C128.335 48.5932 128.405 48.8385 128.514 49.0946C128.562 49.2109 128.629 49.2963 128.718 49.3508C128.807 49.4053 128.892 49.4434 128.974 49.467C129.056 49.4906 129.121 49.5033 129.172 49.507C129.223 49.5106 129.239 49.5251 129.225 49.5469C129.03 49.6941 128.863 49.745 128.723 49.6977C128.584 49.6505 128.465 49.5488 128.367 49.3889C128.269 49.229 128.191 49.0401 128.128 48.8185C128.066 48.5969 128.009 48.3843 127.959 48.1772C127.908 47.972 127.864 47.7976 127.824 47.6523C127.786 47.5087 127.742 47.4361 127.695 47.4361C127.626 47.4433 127.55 47.5106 127.468 47.6341C127.386 47.7576 127.303 47.9138 127.217 48.1009C127.132 48.2881 127.05 48.4915 126.972 48.7131C126.894 48.9348 126.823 49.1418 126.756 49.3362C126.691 49.5306 126.638 49.6977 126.598 49.8376C126.558 49.9775 126.536 50.0629 126.529 50.0937C126.413 50.0937 126.34 50.0974 126.313 50.1046C126.286 50.1119 126.24 50.0738 126.178 49.9884C126.217 49.3053 126.231 48.6586 126.218 48.0483C126.207 47.4379 126.189 46.9093 126.166 46.4588C126.166 46.3897 126.184 46.3534 126.218 46.3534C126.253 46.3534 126.293 46.3697 126.335 46.4006C126.376 46.4315 126.422 46.4624 126.469 46.4933C126.522 46.5278 126.562 46.5441 126.593 46.5441Z" fill="#3771F5"/>
<path d="M133.699 46.6715C133.692 46.7187 133.674 46.815 133.647 46.9621C133.619 47.1093 133.59 47.2819 133.56 47.4799C133.529 47.6779 133.501 47.885 133.478 48.103C133.454 48.3209 133.441 48.5262 133.438 48.7206C133.434 48.915 133.445 49.0803 133.472 49.2165C133.5 49.3528 133.543 49.4363 133.607 49.4672C133.785 49.5526 133.968 49.5235 134.154 49.38C134.341 49.2365 134.557 49.0167 134.806 48.7224C134.829 48.7224 134.831 48.7533 134.811 48.8151C134.791 48.8768 134.76 48.9458 134.718 49.0185C134.675 49.093 134.633 49.1657 134.59 49.2401C134.546 49.3146 134.513 49.3618 134.491 49.3855C134.43 49.4636 134.341 49.5508 134.223 49.6471C134.106 49.7451 133.981 49.8214 133.85 49.8796C133.718 49.9377 133.592 49.9631 133.472 49.9559C133.352 49.9486 133.253 49.8778 133.174 49.747C133.136 49.6543 133.113 49.5399 133.105 49.4036C133.098 49.2674 133.098 49.1293 133.105 48.9895C133.113 48.8496 133.125 48.7224 133.14 48.6043C133.154 48.4881 133.167 48.4027 133.174 48.3482C133.011 48.6516 132.826 48.9386 132.615 49.2111C132.406 49.4836 132.199 49.6961 131.997 49.8523C131.796 50.0086 131.608 50.0903 131.438 50.103C131.267 50.1139 131.134 50.0158 131.042 49.8051C130.987 49.6035 130.987 49.3764 131.042 49.1239C131.096 48.8714 131.178 48.6443 131.287 48.4427C131.45 48.1629 131.621 47.9068 131.799 47.6742C131.977 47.4417 132.168 47.2437 132.37 47.0802C132.571 46.9167 132.784 46.7987 133.005 46.7242C133.227 46.6515 133.458 46.6333 133.699 46.6715ZM131.509 49.6307C131.587 49.6471 131.71 49.5889 131.881 49.4563C132.052 49.3237 132.23 49.1402 132.417 48.9023C132.604 48.6661 132.773 48.39 132.924 48.0757C133.074 47.7614 133.174 47.429 133.222 47.0802C133.191 47.0802 133.145 47.0802 133.087 47.0802C133.029 47.0802 132.96 47.1038 132.884 47.1493C132.589 47.3436 132.337 47.5707 132.126 47.8305C131.917 48.0902 131.754 48.3427 131.638 48.588C131.521 48.8332 131.45 49.053 131.429 49.2456C131.403 49.4418 131.43 49.5689 131.509 49.6307Z" fill="#3771F5"/>
<path d="M138.01 46.6257C138.344 46.6021 138.671 46.5766 138.995 46.5494C139.316 46.5222 139.652 46.4931 140.003 46.4622C140.081 46.4695 140.132 46.5113 140.154 46.5839C140.177 46.6584 140.146 46.702 140.061 46.7183C139.774 46.7492 139.443 46.7928 139.071 46.8473C138.699 46.9018 138.344 46.9708 138.01 47.058C138.025 47.2996 138.034 47.5449 138.034 47.7974C138.034 48.0499 138.039 48.2988 138.052 48.5422C138.063 48.7874 138.086 49.0236 138.121 49.2525C138.155 49.4814 138.212 49.6939 138.29 49.8883C138.399 50.0209 138.508 50.0972 138.617 50.1208C138.726 50.1444 138.827 50.139 138.926 50.1026C139.022 50.0681 139.113 50.0136 139.194 49.9391C139.276 49.8647 139.347 49.7938 139.411 49.723C139.465 49.6685 139.509 49.6685 139.545 49.723C139.58 49.7775 139.547 49.8592 139.447 49.9682C139.4 50.0227 139.342 50.0808 139.273 50.1426C139.202 50.2044 139.118 50.257 139.022 50.3006C138.924 50.3424 138.817 50.3697 138.695 50.3824C138.575 50.3933 138.444 50.3806 138.304 50.3424C138.126 50.2952 137.994 50.1517 137.908 49.9119C137.823 49.6721 137.759 49.3887 137.716 49.0672C137.672 48.7456 137.643 48.4096 137.629 48.059C137.612 47.7102 137.594 47.3941 137.57 47.1162C137.229 47.1471 136.978 47.1743 136.818 47.1979C136.659 47.2215 136.544 47.2361 136.475 47.2452C136.406 47.2524 136.359 47.2488 136.335 47.2343C136.312 47.2197 136.27 47.1834 136.206 47.1289C136.213 47.0907 136.215 47.0526 136.212 47.0181C136.208 46.9836 136.208 46.9545 136.212 46.9309C136.215 46.9073 136.232 46.8836 136.259 46.8618C136.286 46.8382 136.339 46.8201 136.417 46.8037C136.533 46.7728 136.702 46.7547 136.924 46.751C137.145 46.7474 137.36 46.7292 137.57 46.6984C137.563 46.4495 137.554 46.2551 137.547 46.1152C137.54 45.9754 137.53 45.8536 137.523 45.7483C137.516 45.6429 137.509 45.5412 137.505 45.4395C137.501 45.3396 137.5 45.2069 137.5 45.0435C137.5 45.0053 137.521 44.9762 137.563 44.9563C137.605 44.9363 137.654 44.9254 137.708 44.9217C137.763 44.9181 137.814 44.9254 137.859 44.9454C137.906 44.9653 137.937 44.9944 137.952 45.0326C137.976 45.1016 137.99 45.2051 137.999 45.3414C138.006 45.4776 138.012 45.6211 138.017 45.7719C138.021 45.9227 138.023 46.0771 138.023 46.2315C138.023 46.3859 138.017 46.5167 138.01 46.6257Z" fill="#3771F5"/>
<path d="M142.529 44.9712C142.608 44.9567 142.653 45.0021 142.669 45.1111C142.684 45.2201 142.669 45.3018 142.622 45.3563C142.537 45.4253 142.482 45.4871 142.459 45.5362C142.435 45.587 142.38 45.6197 142.295 45.6343C142.248 45.627 142.208 45.6252 142.173 45.6288C142.139 45.6324 142.11 45.5689 142.086 45.4362C142.117 45.3509 142.166 45.2655 142.232 45.1801C142.299 45.0966 142.397 45.0257 142.529 44.9712ZM142.564 46.4862C142.602 46.8586 142.629 47.2692 142.646 47.7161C142.662 48.1629 142.687 48.6298 142.727 49.1203C142.758 49.3692 142.789 49.5635 142.82 49.7034C142.851 49.8433 142.875 49.9759 142.889 50.0994C142.766 50.123 142.667 50.1212 142.598 50.094C142.529 50.0667 142.462 50.034 142.4 49.9959C142.384 49.8723 142.368 49.6653 142.348 49.3782C142.328 49.0912 142.31 48.7788 142.29 48.4409C142.27 48.103 142.251 47.7742 142.232 47.4563C142.212 47.1384 142.195 46.8859 142.179 46.6988C142.21 46.6824 142.235 46.6606 142.255 46.6297C142.275 46.5989 142.295 46.5716 142.319 46.548C142.342 46.5244 142.373 46.5062 142.411 46.4899C142.451 46.4699 142.502 46.4699 142.564 46.4862Z" fill="#3771F5"/>
<path d="M145.489 46.6022C145.636 46.6095 145.799 46.6313 145.977 46.6658C146.155 46.7003 146.33 46.7476 146.502 46.8057C146.673 46.8638 146.831 46.9292 146.975 47.0037C147.118 47.0782 147.236 47.1617 147.331 47.2544C147.423 47.3398 147.478 47.4706 147.494 47.645C147.509 47.8193 147.498 48.0119 147.46 48.2208C147.422 48.4297 147.362 48.6459 147.28 48.8675C147.198 49.0891 147.107 49.289 147.006 49.467C146.904 49.645 146.797 49.794 146.679 49.9102C146.562 50.0265 146.453 50.0846 146.352 50.0846C146.181 50.0846 146.037 50.0447 145.921 49.9629C145.805 49.8812 145.712 49.7831 145.641 49.665C145.57 49.5469 145.52 49.427 145.483 49.298C145.449 49.1691 145.427 49.0601 145.42 48.9656C145.396 48.5532 145.392 48.1881 145.409 47.8702C145.425 47.5523 145.451 47.2871 145.491 47.0782C145.467 47.04 145.443 47.0037 145.422 46.9728C145.398 46.9419 145.374 46.9129 145.353 46.8856C145.329 46.8584 145.302 46.8329 145.271 46.8093C145.302 46.7948 145.333 46.7712 145.363 46.7403C145.423 46.6949 145.465 46.6495 145.489 46.6022ZM145.908 49.3743C145.932 49.4052 145.963 49.4379 146.001 49.4742C146.039 49.5088 146.088 49.536 146.146 49.556C146.204 49.576 146.264 49.5778 146.326 49.5615C146.388 49.5469 146.455 49.5033 146.524 49.4325C146.711 49.2381 146.851 49.0383 146.944 48.833C147.036 48.6277 147.096 48.4333 147.124 48.2499C147.151 48.0682 147.147 47.9065 147.113 47.7667C147.078 47.6268 147.022 47.5251 146.944 47.4633C146.882 47.4251 146.829 47.3924 146.786 47.3652C146.742 47.338 146.688 47.3125 146.622 47.2889C146.557 47.2653 146.473 47.2399 146.372 47.2126C146.27 47.1854 146.139 47.149 145.976 47.1018C145.897 47.3507 145.843 47.5995 145.812 47.8466C145.781 48.0955 145.767 48.3225 145.772 48.5278C145.776 48.7331 145.792 48.9129 145.819 49.0637C145.848 49.2181 145.877 49.3198 145.908 49.3743Z" fill="#3771F5"/>
<path d="M150.383 46.5441C150.383 46.7621 150.381 46.9783 150.377 47.1963C150.374 47.4143 150.37 47.6232 150.366 47.8248C150.363 48.0265 150.359 48.2172 150.355 48.3952C150.352 48.5733 150.346 48.7331 150.337 48.873C150.337 48.8421 150.355 48.7658 150.39 48.6459C150.424 48.526 150.474 48.388 150.535 48.2317C150.597 48.0773 150.666 47.912 150.739 47.7358C150.813 47.5614 150.891 47.4052 150.977 47.269C151.062 47.1327 151.149 47.0274 151.238 46.9492C151.327 46.8711 151.411 46.8493 151.489 46.8802C151.66 46.9583 151.78 47.0709 151.851 47.2181C151.92 47.3652 151.97 47.5342 152.001 47.7249C152.032 47.9157 152.063 48.1264 152.094 48.3607C152.125 48.5932 152.196 48.8385 152.305 49.0946C152.352 49.2109 152.419 49.2963 152.508 49.3508C152.597 49.4053 152.682 49.4434 152.764 49.467C152.846 49.4906 152.911 49.5033 152.962 49.507C153.013 49.5106 153.029 49.5251 153.015 49.5469C152.821 49.6941 152.653 49.745 152.514 49.6977C152.374 49.6505 152.256 49.5488 152.158 49.3889C152.059 49.229 151.981 49.0401 151.918 48.8185C151.856 48.5969 151.8 48.3843 151.749 48.1772C151.698 47.972 151.654 47.7976 151.614 47.6523C151.576 47.5087 151.533 47.4361 151.485 47.4361C151.416 47.4433 151.34 47.5106 151.258 47.6341C151.177 47.7576 151.093 47.9138 151.008 48.1009C150.922 48.2881 150.84 48.4915 150.762 48.7131C150.684 48.9348 150.613 49.1418 150.546 49.3362C150.481 49.5306 150.428 49.6977 150.388 49.8376C150.348 49.9775 150.326 50.0629 150.319 50.0937C150.203 50.0937 150.13 50.0974 150.103 50.1046C150.076 50.1119 150.03 50.0738 149.969 49.9884C150.007 49.3053 150.021 48.6586 150.008 48.0483C149.998 47.4379 149.979 46.9093 149.956 46.4588C149.956 46.3897 149.974 46.3534 150.008 46.3534C150.043 46.3534 150.083 46.3697 150.125 46.4006C150.167 46.4315 150.212 46.4624 150.259 46.4933C150.312 46.5278 150.35 46.5441 150.383 46.5441Z" fill="#3771F5"/>
<path d="M159.958 47.8832C159.849 47.8832 159.727 47.8886 159.591 47.9013C159.455 47.9122 159.326 47.9195 159.2 47.9195C159.075 47.9195 158.966 47.9104 158.868 47.8904C158.772 47.8704 158.71 47.8305 158.688 47.7687C158.641 47.7306 158.641 47.6851 158.688 47.6343C158.735 47.5834 158.777 47.5398 158.817 47.4999C158.964 47.4853 159.093 47.4726 159.202 47.4653C159.311 47.4581 159.413 47.4472 159.506 47.4363C159.598 47.4254 159.687 47.4127 159.773 47.4018C159.858 47.3909 159.947 47.3763 160.041 47.3618C160.158 46.9276 160.267 46.5116 160.368 46.1156C160.468 45.7196 160.566 45.3272 160.659 44.9385C160.752 44.5497 160.844 44.1574 160.933 43.7613C161.022 43.3653 161.117 42.9493 161.219 42.5152C161.288 42.4152 161.348 42.3626 161.393 42.3571C161.438 42.3517 161.517 42.3553 161.626 42.3626C161.673 42.6114 161.707 42.8203 161.731 42.9911C161.755 43.1619 161.776 43.3344 161.794 43.5088C161.814 43.6832 161.836 43.8776 161.864 44.0919C161.891 44.3063 161.927 44.5752 161.974 44.9021C162.005 45.2364 162.049 45.5652 162.103 45.8867C162.158 46.2101 162.203 46.5407 162.243 46.8822C162.445 46.8513 162.639 46.8186 162.826 46.7841C163.013 46.7496 163.177 46.7187 163.322 46.6915C163.466 46.6642 163.582 46.6424 163.671 46.6279C163.76 46.6116 163.805 46.6079 163.805 46.617C163.829 46.686 163.791 46.7551 163.695 46.8205C163.597 46.8859 163.471 46.9531 163.317 47.0185C163.161 47.0839 162.995 47.1474 162.815 47.2056C162.637 47.2637 162.478 47.3164 162.338 47.3636C162.354 47.5108 162.379 47.696 162.419 47.9177C162.458 48.1393 162.499 48.3736 162.541 48.6225C162.583 48.8714 162.628 49.1221 162.676 49.3746C162.723 49.6271 162.763 49.856 162.797 50.0612C162.832 50.2665 162.857 50.4373 162.874 50.5735C162.888 50.7098 162.888 50.7842 162.874 50.8006C162.741 50.8169 162.646 50.8024 162.588 50.7606C162.53 50.717 162.458 50.6807 162.372 50.6498C162.31 50.1375 162.232 49.6144 162.14 49.0821C162.047 48.5498 161.973 48.0194 161.918 47.4926C161.74 47.5307 161.513 47.5834 161.237 47.6506C160.961 47.716 160.675 47.7723 160.381 47.8196C160.334 47.9903 160.292 48.1811 160.252 48.39C160.214 48.5989 160.174 48.8005 160.136 48.9895C160.098 49.1802 160.063 49.351 160.038 49.5017C160.011 49.6525 159.985 49.7524 159.962 49.7997C159.923 49.8378 159.854 49.8632 159.758 49.8759C159.66 49.8868 159.582 49.8632 159.52 49.7997C159.52 49.7524 159.538 49.6471 159.573 49.4799C159.607 49.3128 159.649 49.1293 159.695 48.9259C159.742 48.7242 159.789 48.528 159.84 48.3373C159.887 48.1429 159.927 47.9921 159.958 47.8832ZM160.517 47.3128C160.634 47.2891 160.763 47.2637 160.903 47.2365C161.042 47.2092 161.171 47.1801 161.293 47.1493C161.413 47.1184 161.518 47.0929 161.607 47.073C161.696 47.053 161.749 47.0403 161.765 47.033C161.749 46.8622 161.736 46.7205 161.725 46.6079C161.715 46.4953 161.702 46.3772 161.691 46.2519C161.68 46.1283 161.666 45.9812 161.651 45.8141C161.635 45.6469 161.613 45.4199 161.582 45.1329C161.52 44.6442 161.475 44.2791 161.448 44.0375C161.42 43.7977 161.395 43.7196 161.371 43.8049C161.262 44.2246 161.168 44.5879 161.086 44.8949C161.004 45.2019 160.93 45.4853 160.864 45.745C160.799 46.0048 160.737 46.2591 160.685 46.508C160.626 46.7587 160.572 47.0257 160.517 47.3128Z" fill="#3771F5"/>
<path d="M166.494 49.6542C166.517 49.6542 166.554 49.627 166.605 49.5725C166.655 49.518 166.717 49.4036 166.792 49.2292C166.866 49.0548 166.955 48.8095 167.061 48.4953C167.166 48.181 167.284 47.7632 167.417 47.2436C167.447 47.1347 167.495 47.1019 167.556 47.1455C167.618 47.1891 167.665 47.2636 167.696 47.3726C167.72 47.4108 167.765 47.507 167.836 47.6578C167.905 47.8086 167.983 47.9721 168.069 48.1465C168.154 48.3209 168.241 48.4807 168.33 48.6242C168.419 48.7678 168.496 48.844 168.557 48.8513C168.636 48.8677 168.703 48.7896 168.761 48.6188C168.819 48.448 168.866 48.2464 168.901 48.0139C168.935 47.7814 168.963 47.5434 168.983 47.3036C169.002 47.062 169.012 46.8803 169.012 46.7568C169.026 46.7332 169.062 46.6914 169.117 46.6278C169.171 46.5661 169.226 46.517 169.28 46.4825C169.335 46.448 169.373 46.4443 169.397 46.4716C169.42 46.4988 169.411 46.586 169.373 46.7332C169.373 47.1129 169.344 47.4671 169.286 47.7941C169.228 48.121 169.157 48.4044 169.077 48.6442C168.995 48.8858 168.908 49.0711 168.815 49.2037C168.723 49.3363 168.637 49.4017 168.559 49.4017C168.467 49.409 168.367 49.3491 168.261 49.2219C168.156 49.0929 168.058 48.9476 167.963 48.7841C167.871 48.6206 167.787 48.4589 167.713 48.3009C167.638 48.1429 167.582 48.0357 167.544 47.9812C167.497 48.1992 167.428 48.4499 167.335 48.7332C167.242 49.0166 167.14 49.2837 167.032 49.5307C166.923 49.7796 166.81 49.9885 166.694 50.1593C166.577 50.33 166.468 50.4081 166.367 50.3918C166.274 50.3228 166.198 50.1883 166.14 49.9903C166.081 49.7923 166.034 49.5598 166 49.2909C165.965 49.0221 165.938 48.7423 165.918 48.4462C165.898 48.1501 165.885 47.8649 165.878 47.5906C165.871 47.3145 165.867 47.0711 165.867 46.8567C165.867 46.6442 165.867 46.4898 165.867 46.3971C165.867 46.3426 165.885 46.299 165.92 46.2627C165.954 46.2264 165.998 46.1991 166.049 46.1755C166.1 46.1519 166.147 46.1373 166.194 46.1283C166.241 46.121 166.276 46.1174 166.299 46.1174C166.33 46.1101 166.347 46.1392 166.347 46.2046C166.347 46.27 166.341 46.3808 166.328 46.537C166.318 46.6932 166.305 46.8985 166.294 47.1546C166.283 47.4108 166.285 47.7214 166.299 48.0865C166.299 48.1955 166.303 48.3409 166.31 48.5225C166.318 48.706 166.328 48.8822 166.339 49.053C166.35 49.2237 166.368 49.369 166.392 49.4908C166.412 49.607 166.447 49.6633 166.494 49.6542Z" fill="#3771F5"/>
<path d="M174.311 46.6715C174.303 46.7187 174.285 46.815 174.258 46.9621C174.231 47.1093 174.202 47.2819 174.171 47.4799C174.14 47.6779 174.113 47.885 174.089 48.103C174.065 48.3209 174.053 48.5262 174.049 48.7206C174.045 48.915 174.056 49.0803 174.084 49.2165C174.111 49.3528 174.154 49.4363 174.218 49.4672C174.396 49.5526 174.579 49.5235 174.765 49.38C174.952 49.2365 175.168 49.0167 175.417 48.7224C175.441 48.7224 175.442 48.7533 175.422 48.8151C175.402 48.8768 175.371 48.9458 175.33 49.0185C175.286 49.093 175.244 49.1657 175.201 49.2401C175.157 49.3146 175.124 49.3618 175.103 49.3855C175.041 49.4636 174.952 49.5508 174.834 49.6471C174.717 49.7451 174.592 49.8214 174.461 49.8796C174.329 49.9377 174.203 49.9631 174.084 49.9559C173.964 49.9486 173.864 49.8778 173.786 49.747C173.747 49.6543 173.724 49.5399 173.717 49.4036C173.709 49.2674 173.709 49.1293 173.717 48.9895C173.724 48.8496 173.737 48.7224 173.751 48.6043C173.766 48.4881 173.778 48.4027 173.786 48.3482C173.622 48.6516 173.437 48.9386 173.226 49.2111C173.017 49.4836 172.81 49.6961 172.608 49.8523C172.407 50.0086 172.22 50.0903 172.049 50.103C171.878 50.1139 171.746 50.0158 171.653 49.8051C171.598 49.6035 171.598 49.3764 171.653 49.1239C171.707 48.8714 171.789 48.6443 171.898 48.4427C172.062 48.1629 172.232 47.9068 172.41 47.6742C172.588 47.4417 172.779 47.2437 172.981 47.0802C173.182 46.9167 173.395 46.7987 173.617 46.7242C173.838 46.6515 174.071 46.6333 174.311 46.6715ZM172.122 49.6307C172.2 49.6471 172.323 49.5889 172.494 49.4563C172.665 49.3237 172.843 49.1402 173.03 48.9023C173.217 48.6661 173.386 48.39 173.537 48.0757C173.687 47.7614 173.787 47.429 173.835 47.0802C173.804 47.0802 173.758 47.0802 173.7 47.0802C173.642 47.0802 173.573 47.1038 173.497 47.1493C173.202 47.3436 172.95 47.5707 172.739 47.8305C172.53 48.0902 172.367 48.3427 172.251 48.588C172.134 48.8332 172.063 49.053 172.042 49.2456C172.016 49.4418 172.043 49.5689 172.122 49.6307Z" fill="#3771F5"/>
<path d="M177.724 44.9712C177.802 44.9567 177.848 45.0021 177.864 45.1111C177.878 45.2201 177.864 45.3018 177.817 45.3563C177.731 45.4253 177.677 45.4871 177.653 45.5362C177.63 45.587 177.575 45.6197 177.49 45.6343C177.442 45.627 177.402 45.6252 177.368 45.6288C177.333 45.6324 177.304 45.5689 177.281 45.4362C177.312 45.3509 177.361 45.2655 177.426 45.1801C177.493 45.0966 177.593 45.0257 177.724 44.9712ZM177.76 46.4862C177.798 46.8586 177.826 47.2692 177.842 47.7161C177.858 48.1629 177.884 48.6298 177.924 49.1203C177.955 49.3692 177.986 49.5635 178.016 49.7034C178.047 49.8433 178.071 49.9759 178.086 50.0994C177.962 50.123 177.864 50.1212 177.795 50.094C177.726 50.0667 177.659 50.034 177.597 49.9959C177.581 49.8723 177.564 49.6653 177.544 49.3782C177.524 49.0912 177.506 48.7788 177.486 48.4409C177.466 48.103 177.448 47.7742 177.428 47.4563C177.408 47.1384 177.392 46.8859 177.375 46.6988C177.406 46.6824 177.432 46.6606 177.452 46.6297C177.472 46.5989 177.491 46.5716 177.515 46.548C177.539 46.5244 177.57 46.5062 177.608 46.4899C177.646 46.4699 177.697 46.4699 177.76 46.4862Z" fill="#3771F5"/>
<path d="M182.198 46.6257C182.533 46.6021 182.86 46.5766 183.183 46.5494C183.505 46.5222 183.841 46.4931 184.191 46.4622C184.269 46.4695 184.32 46.5113 184.342 46.5839C184.366 46.6584 184.335 46.702 184.249 46.7183C183.962 46.7492 183.632 46.7928 183.259 46.8473C182.887 46.9018 182.533 46.9708 182.198 47.058C182.213 47.2996 182.222 47.5449 182.222 47.7974C182.222 48.0499 182.227 48.2988 182.24 48.5422C182.251 48.7874 182.275 49.0236 182.309 49.2525C182.344 49.4814 182.4 49.6939 182.478 49.8883C182.587 50.0209 182.696 50.0972 182.805 50.1208C182.914 50.1444 183.016 50.139 183.114 50.1026C183.21 50.0681 183.301 50.0136 183.383 49.9391C183.465 49.8647 183.535 49.7938 183.599 49.723C183.653 49.6685 183.697 49.6685 183.733 49.723C183.768 49.7775 183.735 49.8592 183.635 49.9682C183.588 50.0227 183.53 50.0808 183.461 50.1426C183.39 50.2044 183.307 50.257 183.21 50.3006C183.112 50.3424 183.005 50.3697 182.883 50.3824C182.763 50.3933 182.633 50.3806 182.493 50.3424C182.315 50.2952 182.182 50.1517 182.097 49.9119C182.011 49.6721 181.948 49.3887 181.904 49.0672C181.861 48.7456 181.831 48.4096 181.817 48.059C181.801 47.7102 181.782 47.3941 181.759 47.1162C181.417 47.1471 181.167 47.1743 181.007 47.1979C180.847 47.2215 180.732 47.2361 180.663 47.2452C180.594 47.2524 180.547 47.2488 180.524 47.2343C180.5 47.2197 180.458 47.1834 180.395 47.1289C180.402 47.0907 180.404 47.0526 180.4 47.0181C180.396 46.9836 180.396 46.9545 180.4 46.9309C180.404 46.9073 180.42 46.8836 180.447 46.8618C180.474 46.8382 180.527 46.8201 180.605 46.8037C180.722 46.7728 180.89 46.7547 181.112 46.751C181.334 46.7474 181.548 46.7292 181.759 46.6984C181.752 46.4495 181.742 46.2551 181.735 46.1152C181.728 45.9754 181.719 45.8536 181.712 45.7483C181.704 45.6429 181.697 45.5412 181.693 45.4395C181.69 45.3396 181.688 45.2069 181.688 45.0435C181.688 45.0053 181.71 44.9762 181.752 44.9563C181.793 44.9363 181.842 44.9254 181.897 44.9217C181.951 44.9181 182.002 44.9254 182.048 44.9454C182.095 44.9653 182.126 44.9944 182.14 45.0326C182.164 45.1016 182.178 45.2051 182.187 45.3414C182.195 45.4776 182.2 45.6211 182.206 45.7719C182.209 45.9227 182.211 46.0771 182.211 46.2315C182.211 46.3859 182.206 46.5167 182.198 46.6257Z" fill="#3771F5"/>
<path d="M186.987 46.4279C187.181 46.4588 187.343 46.5024 187.47 46.5569C187.599 46.6114 187.699 46.6713 187.774 46.7367C187.848 46.8021 187.906 46.8712 187.948 46.9402C187.99 47.0092 188.032 47.0764 188.07 47.1382C188.062 47.1691 188.024 47.1655 187.959 47.1273C187.894 47.0892 187.828 47.0492 187.766 47.011C187.596 46.9021 187.39 46.8367 187.149 46.813C186.907 46.7894 186.685 46.804 186.478 46.853C186.273 46.9039 186.108 46.9911 185.982 47.1146C185.859 47.2381 185.826 47.3907 185.89 47.5687C185.952 47.7468 186.062 47.903 186.222 48.0356C186.382 48.1682 186.558 48.2863 186.753 48.3917C186.947 48.497 187.141 48.5915 187.336 48.6769C187.53 48.7622 187.69 48.8476 187.814 48.933C187.968 48.8476 188.101 48.775 188.21 48.7168C188.319 48.6587 188.415 48.6042 188.5 48.5533C188.586 48.5025 188.673 48.4571 188.762 48.4135C188.851 48.3717 188.954 48.3226 189.071 48.2681C189.087 48.2609 189.1 48.2572 189.111 48.2572C189.122 48.2572 189.122 48.2663 189.111 48.2863C189.1 48.3063 189.067 48.3372 189.018 48.3789C188.967 48.4225 188.887 48.4825 188.78 48.5588C188.726 48.5969 188.624 48.6641 188.477 48.7568C188.33 48.8494 188.17 48.9512 187.999 49.0602C188.092 49.1455 188.166 49.2345 188.221 49.329C188.268 49.4144 188.3 49.5052 188.319 49.6033C188.339 49.7014 188.32 49.7995 188.266 49.9012C188.11 50.1501 187.935 50.3445 187.741 50.4844C187.547 50.6242 187.369 50.7205 187.205 50.775C187.096 50.8132 186.976 50.8168 186.844 50.7859C186.711 50.755 186.607 50.6933 186.529 50.5988C186.444 50.4753 186.422 50.3481 186.466 50.221C186.507 50.092 186.58 49.9684 186.682 49.8485C186.784 49.7287 186.9 49.6142 187.031 49.5052C187.163 49.3962 187.28 49.2999 187.379 49.2146C187.31 49.1364 187.174 49.042 186.971 48.9294C186.769 48.8167 186.56 48.6932 186.348 48.557C186.133 48.4207 185.943 48.2754 185.772 48.121C185.601 47.9648 185.508 47.8104 185.492 47.6541C185.461 47.4834 185.483 47.318 185.556 47.1582C185.63 46.9983 185.737 46.8585 185.883 46.7386C186.026 46.6187 186.193 46.5278 186.384 46.4697C186.577 46.4098 186.776 46.397 186.987 46.4279ZM186.882 50.4244C186.967 50.4626 187.063 50.4626 187.172 50.4244C187.281 50.3863 187.383 50.33 187.481 50.2555C187.577 50.181 187.663 50.0992 187.737 50.0102C187.812 49.9212 187.859 49.8413 187.883 49.7723C187.906 49.7105 187.884 49.6433 187.819 49.5688C187.754 49.4943 187.685 49.4344 187.616 49.389C187.53 49.4507 187.434 49.5307 187.325 49.6269C187.216 49.725 187.121 49.8231 187.04 49.9249C186.958 50.0266 186.898 50.1229 186.86 50.2155C186.82 50.3063 186.827 50.3772 186.882 50.4244Z" fill="#3771F5"/>
<path d="M64.4176 14.8582C65.1261 15.1942 65.7023 15.672 66.1478 16.2915C66.5934 16.9091 66.8958 17.6267 67.0532 18.4405H63.9792C63.811 18.019 63.548 17.6884 63.1919 17.4523C62.8358 17.2161 62.4243 17.098 61.959 17.098C61.3149 17.098 60.796 17.3415 60.3988 17.8301C60.0033 18.317 59.8047 18.9691 59.8047 19.7829C59.8047 20.5968 60.0033 21.2507 60.3988 21.743C60.7942 22.2353 61.3149 22.4824 61.959 22.4824C62.4243 22.4824 62.8358 22.3625 63.1919 22.1209C63.548 21.8793 63.811 21.5487 63.9792 21.1254H67.0532C66.8153 22.3716 66.2534 23.3652 65.3677 24.1028C64.482 24.8421 63.3601 25.2109 62.0038 25.2109C60.9642 25.2109 60.0552 24.982 59.2786 24.5242C58.5003 24.0664 57.9026 23.4252 57.4822 22.6023C57.0617 21.7775 56.8505 20.8384 56.8505 19.7829C56.8505 18.7275 57.0617 17.7883 57.4822 16.9636C57.9026 16.1389 58.5021 15.4994 59.2786 15.0417C60.0552 14.5839 60.9642 14.355 62.0038 14.355C62.9056 14.3532 63.709 14.5221 64.4176 14.8582Z" fill="#3771F5"/>
<path d="M71.2869 16.8273V18.5912H74.6884V20.8383H71.2869V22.7693H75.134V25.1363H68.3614V14.4603H75.134V16.8273H71.2869Z" fill="#3771F5"/>
<path d="M86.067 14.4582L82.3542 21.7409V25.1342H79.4429V21.7409L75.7301 14.4582H79.0726L80.9299 18.5292L82.7711 14.4582H86.067Z" fill="#3771F5"/>
<path d="M89.7254 23.0188H93.0087V25.2659H86.7998V14.5898H89.7254V23.0188Z" fill="#3771F5"/>
<path d="M102.011 14.9942C102.829 15.4611 103.471 16.1132 103.942 16.9471C104.412 17.7809 104.647 18.7219 104.647 19.7664C104.647 20.8127 104.409 21.7519 103.935 22.5857C103.459 23.4195 102.813 24.0717 101.997 24.5386C101.179 25.0054 100.281 25.2398 99.3002 25.2398C98.3197 25.2398 97.4179 25.0054 96.5966 24.5386C95.7753 24.0717 95.1258 23.4195 94.6516 22.5857C94.1756 21.7519 93.9395 20.8109 93.9395 19.7664C93.9395 18.72 94.1774 17.7809 94.6516 16.9471C95.1276 16.1132 95.7753 15.4611 96.5966 14.9942C97.4179 14.5274 98.3197 14.293 99.3002 14.293C100.29 14.293 101.195 14.5274 102.011 14.9942ZM97.5485 17.77C97.1227 18.2568 96.9097 18.9235 96.9097 19.7682C96.9097 20.5929 97.1227 21.2505 97.5485 21.7428C97.9744 22.2351 98.5595 22.4822 99.302 22.4822C100.034 22.4822 100.614 22.2351 101.039 21.7428C101.465 21.2505 101.678 20.5911 101.678 19.7682C101.678 18.9235 101.467 18.2586 101.047 17.77C100.626 17.2831 100.045 17.0379 99.302 17.0379C98.5595 17.0379 97.9726 17.2813 97.5485 17.77Z" fill="#3771F5"/>
<path d="M115.669 25.1363H112.743L108.882 19.1797V25.1363H105.956V14.4747H108.882L112.743 20.5058V14.4747H115.669V25.1363Z" fill="#3771F5"/>
<path d="M127.812 14.9942C128.629 15.4611 129.272 16.1132 129.742 16.9471C130.213 17.7809 130.447 18.7219 130.447 19.7664C130.447 20.8127 130.209 21.7519 129.735 22.5857C129.259 23.4195 128.613 24.0717 127.797 24.5386C126.979 25.0054 126.081 25.2398 125.101 25.2398C124.12 25.2398 123.218 25.0054 122.397 24.5386C121.576 24.0717 120.926 23.4195 120.45 22.5857C119.974 21.7519 119.738 20.8109 119.738 19.7664C119.738 18.72 119.976 17.7809 120.45 16.9471C120.926 16.1132 121.574 15.4611 122.397 14.9942C123.218 14.5274 124.12 14.293 125.101 14.293C126.09 14.293 126.994 14.5274 127.812 14.9942ZM123.347 17.77C122.921 18.2568 122.708 18.9235 122.708 19.7682C122.708 20.5929 122.921 21.2505 123.347 21.7428C123.773 22.2351 124.358 22.4822 125.101 22.4822C125.833 22.4822 126.412 22.2351 126.838 21.7428C127.264 21.2505 127.477 20.5911 127.477 19.7682C127.477 18.9235 127.266 18.2586 126.845 17.77C126.425 17.2831 125.843 17.0379 125.101 17.0379C124.358 17.0379 123.773 17.2813 123.347 17.77Z" fill="#3771F5"/>
<path d="M140.741 22.535C140.295 23.3452 139.662 23.981 138.839 24.4424C138.018 24.9056 137.051 25.1363 135.942 25.1363H131.753V14.4603H135.942C137.051 14.4603 138.019 14.6837 138.846 15.1306C139.673 15.5775 140.306 16.2042 140.746 17.0071C141.186 17.8119 141.407 18.7311 141.407 19.7665C141.41 20.8038 141.186 21.7248 140.741 22.535ZM137.712 21.7738C138.207 21.3015 138.454 20.633 138.454 19.7683C138.454 18.9145 138.207 18.2478 137.712 17.7701C137.216 17.2923 136.538 17.0544 135.677 17.0544H134.682V22.4823H135.677C136.538 22.4823 137.216 22.2461 137.712 21.7738Z" fill="#3771F5"/>
<path d="M152.313 14.4582L148.6 21.7409V25.1342H145.687V21.7409L141.974 14.4582H145.317L147.174 18.5292L149.015 14.4582H152.313Z" fill="#3771F5"/>
<path d="M160.57 23.6721C160.273 24.1553 159.837 24.5368 159.264 24.8183C158.69 25.0999 158.001 25.2398 157.199 25.2398C155.981 25.2398 154.979 24.9437 154.191 24.3497C153.404 23.7556 152.976 22.9127 152.907 21.8155H156.011C156.041 22.1879 156.154 22.464 156.353 22.6457C156.551 22.8274 156.793 22.9164 157.081 22.9164C157.339 22.9164 157.539 22.851 157.682 22.7202C157.825 22.5894 157.897 22.4041 157.897 22.1625C157.897 21.841 157.754 21.5921 157.466 21.4159C157.178 21.2397 156.723 21.0471 156.099 20.8346C155.435 20.6039 154.887 20.3768 154.458 20.1552C154.027 19.9336 153.656 19.6029 153.343 19.1597C153.032 18.7183 152.874 18.1497 152.874 17.4557C152.874 16.7927 153.043 16.2223 153.379 15.7445C153.715 15.2668 154.175 14.9053 154.76 14.6582C155.344 14.4111 156.007 14.2894 156.75 14.2894C157.958 14.2894 158.921 14.5783 159.64 15.1559C160.357 15.7336 160.751 16.5456 160.821 17.592H157.686C157.646 17.2595 157.545 17.0143 157.382 16.8526C157.219 16.6928 157.002 16.611 156.736 16.611C156.508 16.611 156.33 16.671 156.201 16.7927C156.072 16.9126 156.007 17.0942 156.007 17.3358C156.007 17.6374 156.149 17.8736 156.432 18.0443C156.714 18.2151 157.156 18.4058 157.761 18.6165C158.425 18.8581 158.974 19.0943 159.409 19.325C159.844 19.5557 160.221 19.8936 160.538 20.335C160.855 20.7783 161.014 21.3505 161.014 22.0535C161.016 22.653 160.867 23.1907 160.57 23.6721Z" fill="#3771F5"/>
<path d="M169.69 23.6721C169.393 24.1553 168.957 24.5368 168.384 24.8183C167.81 25.0999 167.121 25.2398 166.319 25.2398C165.101 25.2398 164.099 24.9437 163.311 24.3497C162.524 23.7556 162.096 22.9127 162.027 21.8155H165.131C165.161 22.1879 165.274 22.464 165.473 22.6457C165.671 22.8274 165.913 22.9164 166.201 22.9164C166.459 22.9164 166.659 22.851 166.802 22.7202C166.945 22.5894 167.017 22.4041 167.017 22.1625C167.017 21.841 166.874 21.5921 166.586 21.4159C166.298 21.2397 165.843 21.0471 165.219 20.8346C164.555 20.6039 164.007 20.3768 163.578 20.1552C163.147 19.9336 162.776 19.6029 162.463 19.1597C162.152 18.7183 161.994 18.1497 161.994 17.4557C161.994 16.7927 162.163 16.2223 162.499 15.7445C162.835 15.2668 163.295 14.9053 163.88 14.6582C164.464 14.4111 165.127 14.2894 165.87 14.2894C167.078 14.2894 168.04 14.5783 168.76 15.1559C169.477 15.7336 169.871 16.5456 169.941 17.592H166.806C166.767 17.2595 166.665 17.0143 166.502 16.8526C166.339 16.6928 166.122 16.611 165.856 16.611C165.628 16.611 165.45 16.671 165.321 16.7927C165.192 16.9126 165.127 17.0942 165.127 17.3358C165.127 17.6374 165.269 17.8736 165.552 18.0443C165.834 18.2151 166.276 18.4058 166.881 18.6165C167.545 18.8581 168.094 19.0943 168.529 19.325C168.964 19.5557 169.341 19.8936 169.658 20.335C169.975 20.7783 170.134 21.3505 170.134 22.0535C170.136 22.653 169.987 23.1907 169.69 23.6721Z" fill="#3771F5"/>
<path d="M174.339 16.8273V18.5912H177.74V20.8383H174.339V22.7693H178.186V25.1363H171.413V14.4603H178.186V16.8273H174.339Z" fill="#3771F5"/>
<path d="M189.119 14.4582L185.406 21.7409V25.1342H182.495V21.7409L178.782 14.4582H182.125L183.982 18.5292L185.823 14.4582H189.119Z" fill="#3771F5"/>
</svg>
